<svg width="431" height="254" xmlns="http://www.w3.org/2000/svg" xmlns:xlink="http://www.w3.org/1999/xlink" overflow="hidden"><defs><clipPath id="clip0"><path d="M173 380 604 380 604 634 173 634Z" fill-rule="evenodd" clip-rule="evenodd"/></clipPath></defs><g clip-path="url(#clip0)" transform="translate(-173 -380)"><rect x="178" y="381" width="425" height="252" fill="#D9D9D9"/><text font-family="Arial,Arial_MSFontService,sans-serif" font-weight="400" font-size="24" transform="translate(187.856 412)">a<tspan x="13.3333" y="0">pplication</tspan></text><rect x="206" y="458" width="103" height="55" stroke="#999999" stroke-width="4" stroke-miterlimit="8" fill="#F0AB00"/><text font-family="Arial,Arial_MSFontService,sans-serif" font-weight="400" font-size="19" transform="translate(240.238 481)">web<tspan x="1.58667" y="23">app</tspan></text><path d="M0 0 62.6504 37.1327" stroke="#000000" stroke-width="0.666667" stroke-linejoin="round" stroke-miterlimit="10" fill="none" fill-rule="evenodd" transform="matrix(1 0 0 -1 309.5 486.633)"/><path d="M309.5 486.5 372.15 503.444" stroke="#000000" stroke-width="0.666667" stroke-linejoin="round" stroke-miterlimit="10" fill="none" fill-rule="evenodd"/><path d="M309.5 486.5 372.998 551.586" stroke="#000000" stroke-width="0.666667" stroke-linejoin="round" stroke-miterlimit="10" fill="none" fill-rule="evenodd"/><rect x="206" y="550" width="103" height="46" stroke="#999999" stroke-width="4" stroke-miterlimit="8" fill="#F0AB00"/><text font-family="Arial,Arial_MSFontService,sans-serif" font-weight="400" font-size="19" transform="translate(229.905 568)">mobile <tspan x="7.25334" y="23">apps</tspan></text><path d="M0 0 62.6504 124.175" stroke="#000000" stroke-width="0.666667" stroke-linejoin="round" stroke-miterlimit="10" fill="none" fill-rule="evenodd" transform="matrix(1 0 0 -1 309.5 573.675)"/><path d="M0 0 63.4984 22.0842" stroke="#000000" stroke-width="0.666667" stroke-linejoin="round" stroke-miterlimit="10" fill="none" fill-rule="evenodd" transform="matrix(1 0 0 -1 309.5 573.584)"/><path d="M0 0 62.6504 81.0835" stroke="#000000" stroke-width="0.666667" stroke-linejoin="round" stroke-miterlimit="10" fill="none" fill-rule="evenodd" transform="matrix(1 0 0 -1 309.5 573.583)"/><path d="M309.5 486.5 372.998 597.202" stroke="#000000" stroke-width="0.666667" stroke-linejoin="round" stroke-miterlimit="10" fill="none" fill-rule="evenodd"/><path d="M309.5 573.5 372.998 597.032" stroke="#000000" stroke-width="0.666667" stroke-linejoin="round" stroke-miterlimit="10" fill="none" fill-rule="evenodd"/><rect x="373" y="439" width="203" height="41" fill="#999999"/><rect x="378" y="445" width="192" height="29" fill="#FFD05D"/><text font-family="Arial,Arial_MSFontService,sans-serif" font-weight="400" font-size="20" transform="translate(441.805 466)">catalog</text><rect x="372" y="485" width="204" height="40" fill="#999999"/><rect x="378" y="490" width="192" height="30" fill="#92D050"/><text font-family="Arial,Arial_MSFontService,sans-serif" font-weight="400" font-size="20" transform="translate(444.845 512)">review</text><rect x="372" y="531" width="204" height="40" fill="#999999"/><rect x="378" y="536" width="192" height="30" fill="#47B2FF"/><text font-family="Arial,Arial_MSFontService,sans-serif" font-weight="400" font-size="20" transform="translate(399.178 558)">recommendation</text><rect x="372" y="576" width="204" height="41" fill="#999999"/><rect x="378" y="581" width="192" height="30" fill="#FF9555"/><text font-family="Arial,Arial_MSFontService,sans-serif" font-weight="400" font-size="20" transform="translate(450.428 603)">order</text></g></svg>