<?xml version="1.0" encoding="UTF-8" standalone="no"?>
<svg
   xmlns:dc="http://purl.org/dc/elements/1.1/"
   xmlns:cc="http://creativecommons.org/ns#"
   xmlns:rdf="http://www.w3.org/1999/02/22-rdf-syntax-ns#"
   xmlns:svg="http://www.w3.org/2000/svg"
   xmlns="http://www.w3.org/2000/svg"
   xmlns:sodipodi="http://sodipodi.sourceforge.net/DTD/sodipodi-0.dtd"
   xmlns:inkscape="http://www.inkscape.org/namespaces/inkscape"
   viewBox="0 0 551.81087 563.14997"
   inkscape:version="1.0 (4035a4fb49, 2020-05-01)"
   sodipodi:docname="modular-monolith.svg"
   id="svg2999"
   version="1.1"
   overflow="hidden"
   height="149mm"
   width="146mm">
  <metadata
     id="metadata3003">
    <rdf:RDF>
      <cc:Work
         rdf:about="">
        <dc:format>image/svg+xml</dc:format>
        <dc:type
           rdf:resource="http://purl.org/dc/dcmitype/StillImage" />
        <dc:title></dc:title>
      </cc:Work>
    </rdf:RDF>
  </metadata>
  <sodipodi:namedview
     width="209mm"
     units="mm"
     viewbox-height="562"
     inkscape:showpageshadow="true"
     inkscape:pagecheckerboard="false"
     inkscape:current-layer="svg2999"
     inkscape:window-maximized="0"
     inkscape:window-y="0"
     inkscape:window-x="1912"
     inkscape:cy="392.6964"
     inkscape:cx="459.88158"
     inkscape:zoom="1.2739397"
     inkscape:snap-midpoints="true"
     showgrid="false"
     id="namedview3001"
     inkscape:window-height="2071"
     inkscape:window-width="1918"
     inkscape:pageshadow="2"
     inkscape:pageopacity="0"
     guidetolerance="10"
     gridtolerance="10"
     objecttolerance="10"
     borderopacity="1"
     bordercolor="#666666"
     pagecolor="#ffffff" />
  <defs
     id="defs2949">
    <marker
       inkscape:isstock="true"
       style="overflow:visible"
       id="marker7686"
       refX="0"
       refY="0"
       orient="auto"
       inkscape:stockid="Arrow1Lend">
      <path
         transform="matrix(-0.8,0,0,-0.8,-10,0)"
         style="fill:#000000;fill-opacity:1;fill-rule:evenodd;stroke:#000000;stroke-width:1pt;stroke-opacity:1"
         d="M 0,0 5,-5 -12.5,0 5,5 Z"
         id="path7684" />
    </marker>
    <marker
       inkscape:stockid="Arrow1Lstart"
       orient="auto"
       refY="0"
       refX="0"
       id="marker7154"
       style="overflow:visible"
       inkscape:isstock="true">
      <path
         id="path7152"
         d="M 0,0 5,-5 -12.5,0 5,5 Z"
         style="fill:#000000;fill-opacity:1;fill-rule:evenodd;stroke:#000000;stroke-width:1pt;stroke-opacity:1"
         transform="matrix(0.8,0,0,0.8,10,0)" />
    </marker>
    <rect
       id="rect7064"
       height="77.464081"
       width="93.354141"
       y="375.46094"
       x="91.642715" />
    <marker
       inkscape:isstock="true"
       style="overflow:visible"
       id="Arrow2Send"
       refX="0"
       refY="0"
       orient="auto"
       inkscape:stockid="Arrow2Send">
      <path
         transform="matrix(-0.3,0,0,-0.3,0.69,0)"
         d="M 8.7185878,4.0337352 -2.2072895,0.01601326 8.7185884,-4.0017078 c -1.7454984,2.3720609 -1.7354408,5.6174519 -6e-7,8.035443 z"
         style="fill:#000000;fill-opacity:1;fill-rule:evenodd;stroke:#000000;stroke-width:0.625;stroke-linejoin:round;stroke-opacity:1"
         id="path4432" />
    </marker>
    <marker
       inkscape:isstock="true"
       style="overflow:visible"
       id="Arrow2Lend"
       refX="0"
       refY="0"
       orient="auto"
       inkscape:stockid="Arrow2Lend">
      <path
         transform="matrix(-1.1,0,0,-1.1,-1.1,0)"
         d="M 8.7185878,4.0337352 -2.2072895,0.01601326 8.7185884,-4.0017078 c -1.7454984,2.3720609 -1.7354408,5.6174519 -6e-7,8.035443 z"
         style="fill:#000000;fill-opacity:1;fill-rule:evenodd;stroke:#000000;stroke-width:0.625;stroke-linejoin:round;stroke-opacity:1"
         id="path4420" />
    </marker>
    <marker
       inkscape:isstock="true"
       id="ExperimentalArrow"
       refX="5"
       refY="3"
       orient="auto-start-reverse"
       inkscape:stockid="ExperimentalArrow">
      <path
         style="fill:context-stroke;stroke:#000000;stroke-opacity:1"
         d="M 10,3 0,6 V 0 Z"
         id="path4652" />
    </marker>
    <marker
       inkscape:isstock="true"
       style="overflow:visible"
       id="marker4955"
       refX="0"
       refY="0"
       orient="auto"
       inkscape:stockid="Arrow1Lend">
      <path
         transform="matrix(-0.8,0,0,-0.8,-10,0)"
         style="fill:#000000;fill-opacity:1;fill-rule:evenodd;stroke:#000000;stroke-width:1pt;stroke-opacity:1"
         d="M 0,0 5,-5 -12.5,0 5,5 Z"
         id="path4953" />
    </marker>
    <marker
       inkscape:stockid="Arrow1Lend"
       orient="auto"
       refY="0"
       refX="0"
       id="marker4793"
       style="overflow:visible"
       inkscape:isstock="true">
      <path
         id="path4791"
         d="M 0,0 5,-5 -12.5,0 5,5 Z"
         style="fill:#000000;fill-opacity:1;fill-rule:evenodd;stroke:#000000;stroke-width:1pt;stroke-opacity:1"
         transform="matrix(-0.8,0,0,-0.8,-10,0)" />
    </marker>
    <clipPath
       id="clip0">
      <path
         id="path2946"
         clip-rule="evenodd"
         fill-rule="evenodd"
         d="M 40,153 H 1214 V 664 H 40 Z" />
    </clipPath>
  </defs>
  <rect
     style="fill:#d2d2d2;fill-opacity:1;stroke:none;stroke-width:3;stroke-linecap:round;stroke-linejoin:round;stroke-miterlimit:4;stroke-dasharray:none;stroke-opacity:1"
     id="rect9090"
     width="396.30936"
     height="331.92297"
     x="7.770771"
     y="112.12115"
     rx="18"
     ry="18" />
  <g
     id="g8298"
     transform="translate(-66.854818,-115.83722)">
    <rect
       ry="18"
       rx="18"
       y="248.07529"
       x="83.70253"
       height="139.03809"
       width="177.43909"
       id="rect7046"
       style="fill:#daf7cb;fill-opacity:1;stroke:#000000;stroke-width:2;stroke-linecap:round;stroke-linejoin:round;stroke-miterlimit:4;stroke-dasharray:none;stroke-opacity:1" />
    <text
       id="text7070"
       y="348.38132"
       x="139.31776"
       style="font-style:normal;font-variant:normal;font-weight:normal;font-stretch:normal;font-size:85.3333px;line-height:1.25;font-family:BentonSans;-inkscape-font-specification:'BentonSans, Normal';font-variant-ligatures:normal;font-variant-caps:normal;font-variant-numeric:normal;font-variant-east-asian:normal"
       xml:space="preserve"><tspan
         y="348.38132"
         x="139.31776"
         id="tspan7068"
         sodipodi:role="line">A</tspan></text>
  </g>
  <g
     id="g8293"
     transform="translate(-66.883306,-116.54095)">
    <rect
       style="fill:#e1e5ff;fill-opacity:1;stroke:#000000;stroke-width:2;stroke-linecap:round;stroke-linejoin:round;stroke-miterlimit:4;stroke-dasharray:none;stroke-opacity:1"
       id="rect7052"
       width="177.43909"
       height="139.03809"
       x="83.731018"
       y="403.49072"
       rx="18"
       ry="18" />
    <text
       xml:space="preserve"
       style="font-style:normal;font-variant:normal;font-weight:normal;font-stretch:normal;font-size:85.3333px;line-height:1.25;font-family:BentonSans;-inkscape-font-specification:'BentonSans, Normal';font-variant-ligatures:normal;font-variant-caps:normal;font-variant-numeric:normal;font-variant-east-asian:normal"
       x="143.98087"
       y="503.79675"
       id="text7074"><tspan
         sodipodi:role="line"
         id="tspan7072"
         x="143.98087"
         y="503.79675">C</tspan></text>
  </g>
  <g
     id="g8283"
     transform="translate(-67.409871,-116.541)">
    <rect
       ry="18"
       rx="18"
       y="248.77907"
       x="281.59393"
       height="139.03809"
       width="177.43909"
       id="rect7054"
       style="fill:#aeaeae;fill-opacity:1;stroke:#000000;stroke-width:2;stroke-linecap:round;stroke-linejoin:round;stroke-miterlimit:4;stroke-dasharray:none;stroke-opacity:1" />
    <text
       id="text7078"
       y="350.74033"
       x="340.18857"
       style="font-style:normal;font-variant:normal;font-weight:normal;font-stretch:normal;font-size:85.3333px;line-height:1.25;font-family:BentonSans;-inkscape-font-specification:'BentonSans, Normal';font-variant-ligatures:normal;font-variant-caps:normal;font-variant-numeric:normal;font-variant-east-asian:normal"
       xml:space="preserve"><tspan
         y="350.74033"
         x="340.18857"
         id="tspan7076"
         sodipodi:role="line">B</tspan></text>
  </g>
  <g
     id="g8288"
     transform="translate(-66.854818,-115.83722)">
    <rect
       style="fill:#ffd05d;fill-opacity:1;stroke:#000000;stroke-width:2;stroke-linecap:round;stroke-linejoin:round;stroke-miterlimit:4;stroke-dasharray:none;stroke-opacity:1"
       id="rect7048"
       width="177.43909"
       height="139.03809"
       x="281.03888"
       y="402.78699"
       rx="18"
       ry="18" />
    <text
       xml:space="preserve"
       style="font-style:normal;font-variant:normal;font-weight:normal;font-stretch:normal;font-size:85.3333px;line-height:1.25;font-family:BentonSans;-inkscape-font-specification:'BentonSans, Normal';font-variant-ligatures:normal;font-variant-caps:normal;font-variant-numeric:normal;font-variant-east-asian:normal"
       x="339.63351"
       y="503.42407"
       id="text7082"><tspan
         sodipodi:role="line"
         id="tspan7080"
         x="339.63351"
         y="503.42407">D</tspan></text>
  </g>
  <path
     sodipodi:nodetypes="csccsccscc"
     d="m 150.99935,14.34714 c 0,6.71675 -20.23491,12.16177 -45.19601,12.16177 -24.96102,0 -45.19596,-5.44502 -45.19596,-12.16177 m 90.39197,55.62225 c 0,6.71671 -20.23491,12.16176 -45.19601,12.16176 -24.96102,0 -45.19596,-5.44505 -45.19596,-12.16176 V 14.34714 c 0,-6.71671 20.23494,-12.16172 45.19596,-12.16172 24.9611,0 45.19601,5.44501 45.19601,12.16172 z"
     style="fill:#daf7cb;fill-opacity:1;stroke:#000000;stroke-width:2;stroke-linecap:round;stroke-miterlimit:4;stroke-dasharray:none;stroke-dashoffset:0;stroke-opacity:1"
     id="path2676" />
  <path
     id="path9074"
     style="fill:#aeaeae;fill-opacity:1;stroke:#000000;stroke-width:2;stroke-linecap:round;stroke-miterlimit:4;stroke-dasharray:none;stroke-dashoffset:0;stroke-opacity:1"
     d="m 548.41883,176.42324 c 0,6.71675 -20.23491,12.16177 -45.19601,12.16177 -24.96102,0 -45.19596,-5.44502 -45.19596,-12.16177 m 90.39197,55.62225 c 0,6.71671 -20.23491,12.16176 -45.19601,12.16176 -24.96102,0 -45.19596,-5.44505 -45.19596,-12.16176 v -55.62225 c 0,-6.71671 20.23494,-12.16172 45.19596,-12.16172 24.9611,0 45.19601,5.44501 45.19601,12.16172 z"
     sodipodi:nodetypes="csccsccscc" />
  <path
     sodipodi:nodetypes="csccsccscc"
     d="m 548.41883,332.94879 c 0,6.71675 -20.23491,12.16177 -45.19601,12.16177 -24.96102,0 -45.19596,-5.44502 -45.19596,-12.16177 m 90.39197,55.62225 c 0,6.71671 -20.23491,12.16176 -45.19601,12.16176 -24.96102,0 -45.19596,-5.44505 -45.19596,-12.16176 v -55.62225 c 0,-6.71671 20.23494,-12.16172 45.19596,-12.16172 24.9611,0 45.19601,5.44501 45.19601,12.16172 z"
     style="fill:#ffd05d;fill-opacity:1;stroke:#000000;stroke-width:2;stroke-linecap:round;stroke-miterlimit:4;stroke-dasharray:none;stroke-dashoffset:0;stroke-opacity:1"
     id="path9076" />
  <path
     style="display:inline;fill:none;fill-rule:evenodd;stroke:#000000;stroke-width:3;stroke-linecap:butt;stroke-linejoin:miter;stroke-miterlimit:4;stroke-dasharray:none;stroke-opacity:1"
     d="M 105.56725,132.23807 105.37259,82.12712"
     id="path9082"
     inkscape:connector-type="polyline"
     inkscape:connector-curvature="0" />
  <path
     style="fill:none;fill-rule:evenodd;stroke:#000000;stroke-width:3;stroke-linecap:butt;stroke-linejoin:miter;stroke-miterlimit:4;stroke-dasharray:none;stroke-opacity:1"
     d="m 458.02686,204.23437 -66.04337,-0.14308"
     id="path9084"
     inkscape:connector-type="polyline"
     inkscape:connector-curvature="0" />
  <path
     style="fill:none;fill-rule:evenodd;stroke:#000000;stroke-width:3;stroke-linecap:butt;stroke-linejoin:miter;stroke-miterlimit:4;stroke-dasharray:none;stroke-opacity:1"
     d="m 458.02686,360.75991 -66.15793,0.0259"
     id="path9086"
     inkscape:connector-type="polyline"
     inkscape:connector-curvature="0" />
  <path
     style="display:inline;fill:none;fill-rule:evenodd;stroke:#000000;stroke-width:3;stroke-linecap:butt;stroke-linejoin:miter;stroke-miterlimit:4;stroke-dasharray:none;stroke-opacity:1"
     d="m 105.56884,480.30138 -0.002,-54.31352"
     id="path9088"
     inkscape:connector-type="polyline"
     inkscape:connector-curvature="0" />
  <path
     id="path9092"
     style="fill:#e1e5ff;fill-opacity:1;stroke:#000000;stroke-width:2;stroke-linecap:round;stroke-miterlimit:4;stroke-dasharray:none;stroke-dashoffset:0;stroke-opacity:1"
     d="m 150.99935,492.80467 c 0,6.71675 -20.23491,12.16177 -45.19601,12.16177 -24.96102,0 -45.19596,-5.44502 -45.19596,-12.16177 m 90.39197,55.62225 c 0,6.71671 -20.23491,12.16176 -45.19601,12.16176 -24.96102,0 -45.19596,-5.44505 -45.19596,-12.16176 v -55.62225 c 0,-6.71671 20.23494,-12.16172 45.19596,-12.16172 24.9611,0 45.19601,5.44501 45.19601,12.16172 z"
     sodipodi:nodetypes="csccsccscc" />
</svg>
