<svg width="692" height="117" xmlns="http://www.w3.org/2000/svg" xmlns:xlink="http://www.w3.org/1999/xlink" overflow="hidden"><defs><clipPath id="clip0"><path d="M21 247 713 247 713 364 21 364Z" fill-rule="evenodd" clip-rule="evenodd"/></clipPath></defs><g clip-path="url(#clip0)" transform="translate(-21 -247)"><rect x="111" y="265" width="101" height="99" fill="#999999"/><rect x="119" y="273" width="40" height="40" fill="#FFD05D"/><text font-family="Arial,Arial_MSFontService,sans-serif" font-weight="400" font-size="20" transform="translate(132.568 300)">A</text><rect x="164" y="273" width="40" height="40" fill="#47B2FF"/><text font-family="Arial,Arial_MSFontService,sans-serif" font-weight="400" font-size="20" transform="translate(177.506 300)">B</text><rect x="164" y="316" width="40" height="40" fill="#FF9555"/><text font-family="Arial,Arial_MSFontService,sans-serif" font-weight="400" font-size="20" transform="translate(176.922 343)">D</text><rect x="119" y="316" width="40" height="40" fill="#92D050"/><text font-family="Arial,Arial_MSFontService,sans-serif" font-weight="400" font-size="20" transform="translate(131.984 343)">C</text><rect x="224" y="265" width="100" height="99" fill="#999999"/><rect x="232" y="273" width="40" height="40" fill="#FFD05D"/><text font-family="Arial,Arial_MSFontService,sans-serif" font-weight="400" font-size="20" transform="translate(245.038 300)">A</text><rect x="276" y="273" width="41" height="40" fill="#47B2FF"/><text font-family="Arial,Arial_MSFontService,sans-serif" font-weight="400" font-size="20" transform="translate(289.977 300)">B</text><rect x="276" y="316" width="41" height="40" fill="#FF9555"/><text font-family="Arial,Arial_MSFontService,sans-serif" font-weight="400" font-size="20" transform="translate(289.393 343)">D</text><rect x="232" y="316" width="40" height="40" fill="#92D050"/><text font-family="Arial,Arial_MSFontService,sans-serif" font-weight="400" font-size="20" transform="translate(244.455 343)">C</text><rect x="491" y="258" width="53" height="51" fill="#999999"/><rect x="498" y="263" width="40" height="40" fill="#FFD05D"/><text font-family="Arial,Arial_MSFontService,sans-serif" font-weight="400" font-size="20" transform="translate(511.112 290)">A</text><path d="M378 308.5 417 308.5 417 301 432 316 417 331 417 323.5 378 323.5Z" fill="#4FB81C" fill-rule="evenodd"/><text font-family="Arial,Arial_MSFontService,sans-serif" font-weight="400" transform="translate(32.3345 263)">process<tspan x="-3.20871" y="56">services</tspan></text><path d="M75.5001 259.5 111.847 271.947" stroke="#000000" stroke-width="0.666667" stroke-linejoin="round" stroke-miterlimit="10" fill="none" fill-rule="evenodd"/><path d="M0 0 45.484 21.1495" stroke="#000000" stroke-width="0.666667" stroke-linejoin="round" stroke-miterlimit="10" fill="none" fill-rule="evenodd" transform="matrix(1 0 0 -1 74.5001 314.65)"/><path d="M74.5001 314.5 119.984 336.289" stroke="#000000" stroke-width="0.666667" stroke-linejoin="round" stroke-miterlimit="10" fill="none" fill-rule="evenodd"/><rect x="548" y="258" width="53" height="51" fill="#999999"/><rect x="554" y="263" width="41" height="40" fill="#FFD05D"/><text font-family="Arial,Arial_MSFontService,sans-serif" font-weight="400" font-size="20" transform="translate(567.806 290)">A</text><rect x="604" y="258" width="52" height="51" fill="#999999"/><rect x="610" y="263" width="40" height="40" fill="#FFD05D"/><text font-family="Arial,Arial_MSFontService,sans-serif" font-weight="400" font-size="20" transform="translate(623.486 290)">A</text><rect x="660" y="258" width="52" height="51" fill="#999999"/><rect x="491" y="312" width="52" height="51" fill="#999999"/><rect x="497" y="317" width="40" height="40" fill="#FFD05D"/><text font-family="Arial,Arial_MSFontService,sans-serif" font-weight="400" font-size="20" transform="translate(510.522 344)">A</text><rect x="548" y="312" width="52" height="51" fill="#999999"/><rect x="604" y="312" width="52" height="51" fill="#999999"/><rect x="659" y="312" width="53" height="51" fill="#999999"/><rect x="665" y="264" width="41" height="40" fill="#47B2FF"/><text font-family="Arial,Arial_MSFontService,sans-serif" font-weight="400" font-size="20" transform="translate(678.768 291)">B</text><rect x="610" y="318" width="41" height="39" fill="#47B2FF"/><text font-family="Arial,Arial_MSFontService,sans-serif" font-weight="400" font-size="20" transform="translate(623.85 344)">B</text><rect x="665" y="318" width="41" height="39" fill="#FF9555"/><text font-family="Arial,Arial_MSFontService,sans-serif" font-weight="400" font-size="20" transform="translate(678.185 344)">D</text><rect x="554" y="318" width="41" height="39" fill="#92D050"/><text font-family="Arial,Arial_MSFontService,sans-serif" font-weight="400" font-size="20" transform="translate(567.222 344)">C</text></g></svg>