<?xml version="1.0" encoding="UTF-8" standalone="no"?>
<svg
   xmlns:dc="http://purl.org/dc/elements/1.1/"
   xmlns:cc="http://creativecommons.org/ns#"
   xmlns:rdf="http://www.w3.org/1999/02/22-rdf-syntax-ns#"
   xmlns:svg="http://www.w3.org/2000/svg"
   xmlns="http://www.w3.org/2000/svg"
   xmlns:sodipodi="http://sodipodi.sourceforge.net/DTD/sodipodi-0.dtd"
   xmlns:inkscape="http://www.inkscape.org/namespaces/inkscape"
   inkscape:version="0.92.5 (2060ec1f9f, 2020-04-08)"
   sodipodi:docname="stateful-app.svg"
   id="svg2999"
   version="1.1"
   overflow="hidden"
   height="498.27139"
   width="271.93161"
   style="overflow:hidden">
  <metadata
     id="metadata3003">
    <rdf:RDF>
      <cc:Work
         rdf:about="">
        <dc:format>image/svg+xml</dc:format>
        <dc:type
           rdf:resource="http://purl.org/dc/dcmitype/StillImage" />
        <dc:title></dc:title>
      </cc:Work>
    </rdf:RDF>
  </metadata>
  <sodipodi:namedview
     inkscape:current-layer="g2997"
     inkscape:window-maximized="0"
     inkscape:window-y="27"
     inkscape:window-x="72"
     inkscape:cy="284.28825"
     inkscape:cx="429.37999"
     inkscape:zoom="0.75518876"
     inkscape:snap-midpoints="true"
     showgrid="false"
     id="namedview3001"
     inkscape:window-height="1016"
     inkscape:window-width="1848"
     inkscape:pageshadow="2"
     inkscape:pageopacity="0"
     guidetolerance="10"
     gridtolerance="10"
     objecttolerance="10"
     borderopacity="1"
     bordercolor="#666666"
     pagecolor="#ffffff"
     fit-margin-top="0"
     fit-margin-left="0"
     fit-margin-right="0"
     fit-margin-bottom="0" />
  <defs
     id="defs2949">
    <marker
       inkscape:collect="always"
       inkscape:isstock="true"
       style="overflow:visible"
       id="Arrow1Lend"
       refX="0"
       refY="0"
       orient="auto"
       inkscape:stockid="Arrow1Lend">
      <path
         transform="matrix(-0.8,0,0,-0.8,-10,0)"
         style="fill:#000000;fill-opacity:1;fill-rule:evenodd;stroke:#000000;stroke-width:1.00000003pt;stroke-opacity:1"
         d="M 0,0 5,-5 -12.5,0 5,5 Z"
         id="path4402"
         inkscape:connector-curvature="0" />
    </marker>
    <clipPath
       id="clip0">
      <path
         id="path2946"
         d="M 40,153 H 1214 V 664 H 40 Z"
         inkscape:connector-curvature="0"
         style="clip-rule:evenodd;fill-rule:evenodd" />
    </clipPath>
  </defs>
  <g
     id="g2997"
     transform="translate(-42.845241,-155.26172)"
     clip-path="url(#clip0)">
    <path
       d="m 73.354311,213.29387 c -5.516514,0.20642 -11.321691,-0.0342 -16.096782,-1.37662 m 30.043982,20.47616 c -2.218272,0.42187 -4.635801,1.11797 -7.008082,1.25057 m 66.619031,8.30836 c -1.66848,-1.19534 -3.081,-2.85412 -4.18277,-4.19163 m 81.22941,-5.69129 c -0.24532,1.4179 -0.83001,3.15405 -1.69082,4.5159 m 34.77655,-30.34896 c 12.50878,2.90743 20.55268,9.23466 20.44092,15.87386 m 27.5444,-32.28498 c -2.02528,2.26082 -5.24448,4.0347 -9.16148,5.62786 m -12.68051,-27.2712 c 0.34618,0.91291 0.53971,1.51113 0.51245,2.43854 m -58.17498,-5.99477 c 1.17701,-1.27682 2.81877,-2.15775 4.71104,-3.22158 m -48.00059,4.90332 c 0.48029,-1.05509 1.23343,-2.07737 2.24171,-3.04359 m -53.04445,4.07707 c 2.94443,0.82379 5.66807,1.81517 8.11177,2.95282 m -69.722644,20.25251 c -0.642748,-1.01598 -1.116223,-2.05467 -1.41579,-3.10647 m -8.18e-4,-8.2e-4 c -3.137145,-11.01292 13.01497,-21.15504 36.076492,-22.65304 9.34493,-0.60697 18.84604,0.30047 26.98316,2.57715 8.62204,-7.76181 28.77048,-10.71162 45.00246,-6.58861 2.8384,0.7207 5.44346,1.63444 7.73397,2.71276 6.71533,-6.43386 23.07188,-9.04793 36.53388,-5.83838 3.72592,0.88831 6.97592,2.17279 9.50085,3.75528 10.82368,-6.08445 29.9483,-6.83578 42.71876,-1.67873 5.36714,2.16758 8.98431,5.15731 10.23273,8.45654 17.73418,2.31085 28.19588,11.06432 23.36572,19.55122 -0.40614,0.71332 -0.91587,1.41243 -1.52373,2.09212 14.22333,8.84315 10.74246,21.5184 -7.77676,28.31043 -5.76511,2.11427 -12.57421,3.48323 -19.76764,3.97455 -0.16083,9.51409 -16.45305,17.1649 -36.38969,17.08835 -6.66109,-0.0254 -13.17743,-0.92987 -18.82778,-2.61325 -6.74368,10.66651 -30.26532,16.69518 -52.53717,13.46568 -9.33403,-1.35338 -17.39864,-4.2157 -22.81865,-8.09866 -22.80366,6.5692 -52.402247,3.03539 -66.109848,-7.89277 -0.172817,-0.1378 -0.342635,-0.27615 -0.509183,-0.41559 -14.924134,0.83418 -28.442562,-4.25205 -30.194174,-11.36042 -0.933593,-3.7889 1.685102,-7.58109 7.158274,-10.36631 -12.922019,-3.63361 -17.262614,-11.6084 -9.695194,-17.81261 4.365672,-3.57947 12.022772,-5.94555 20.616462,-6.37098 z"
       style="fill:#e1e5ff;fill-opacity:1;stroke:#000000;stroke-width:2;stroke-miterlimit:4;stroke-dasharray:none;stroke-opacity:1"
       id="path2953"
       inkscape:connector-curvature="0" />
    <rect
       ry="18"
       y="373.61093"
       x="63.324505"
       height="278.92218"
       width="244.90727"
       id="rect3573"
       style="fill:#ffd05d;fill-opacity:1;stroke:#000000;stroke-width:2;stroke-linecap:round;stroke-linejoin:round;stroke-miterlimit:4;stroke-dasharray:none;stroke-opacity:1" />
    <text
       id="text3577"
       y="425.1192"
       x="111.91722"
       style="font-style:normal;font-variant:normal;font-weight:normal;font-stretch:normal;font-size:29.33329964px;line-height:1.25;font-family:BentonSans;-inkscape-font-specification:'BentonSans, Normal';font-variant-ligatures:normal;font-variant-caps:normal;font-variant-numeric:normal"
       xml:space="preserve"><tspan
         y="425.1192"
         x="111.91722"
         id="tspan3575"
         sodipodi:role="line">App</tspan></text>
    <rect
       rx="10"
       ry="10"
       y="516.95941"
       x="136.40794"
       height="31.585266"
       width="90.965561"
       id="rect3579"
       style="fill:#daf7cb;fill-opacity:1;stroke:#000000;stroke-width:2;stroke-linecap:round;stroke-linejoin:round;stroke-miterlimit:4;stroke-dasharray:none;stroke-opacity:1" />
    <text
       id="text3583"
       y="540.90015"
       x="151.74425"
       style="font-size:24px;line-height:1.25;font-family:BentonSans;-inkscape-font-specification:'BentonSans, Normal'"
       xml:space="preserve"><tspan
         y="540.90015"
         x="151.74425"
         id="tspan3581"
         sodipodi:role="line">State</tspan></text>
    <path
       sodipodi:nodetypes="cc"
       inkscape:connector-curvature="0"
       inkscape:connector-type="polyline"
       id="path4397"
       d="m 185.75482,251.54579 0.0233,122.06514"
       style="fill:none;fill-rule:evenodd;stroke:#000000;stroke-width:2;stroke-linecap:butt;stroke-linejoin:miter;stroke-miterlimit:4;stroke-dasharray:none;stroke-opacity:1;marker-end:url(#Arrow1Lend)" />
  </g>
</svg>
