<?xml version="1.0" encoding="UTF-8" standalone="no"?>
<svg
   xmlns:dc="http://purl.org/dc/elements/1.1/"
   xmlns:cc="http://creativecommons.org/ns#"
   xmlns:rdf="http://www.w3.org/1999/02/22-rdf-syntax-ns#"
   xmlns:svg="http://www.w3.org/2000/svg"
   xmlns="http://www.w3.org/2000/svg"
   xmlns:xlink="http://www.w3.org/1999/xlink"
   xmlns:sodipodi="http://sodipodi.sourceforge.net/DTD/sodipodi-0.dtd"
   xmlns:inkscape="http://www.inkscape.org/namespaces/inkscape"
   sodipodi:docname="alice.svg"
   inkscape:version="1.0 (4035a4fb49, 2020-05-01)"
   id="svg1954"
   version="1.1"
   viewBox="0 0 40 40"
   height="40mm"
   width="40mm">
  <defs
     id="defs1948">
    <path
       d="M0.2259 82.0714C0.0183 59.9809 5.4111 42.662 20.745 25.58 33.316 11.5754 48.5812 1.9032 77.1314 0.8771 104.133-0.0929 119.231 11.5044 134.508 23.9523 151.346 37.6723 158.416 54.9123 158.207 80.7049 158.01 104.909 147.691 128.048 135.131 138.705 121.173 150.549 100.64 156.698 77.2633 157.139 55.508 157.549 37.6852 151.678 24.7444 136.834 11.1693 121.262 0.4472 105.626 0.2259 82.0714Z"
       id="path-1" />
    <path
       d="M0.1944 83.0491C-0.0375 60.9591 7.3644 45.1844 18.4817 29.7436 29.0135 15.1161 43.9768 3.4328 78.1362 1.1169 105.372-0.73 122.059 5.3606 135.631 19.6477 148.893 33.6071 158.257 58.3329 157.767 84.1218 157.236 112.062 146.398 122.317 134.345 134.953 119.685 150.117 99.6196 158.865 78.5313 159.287 56.776 159.697 40.3864 151.189 24.9484 138.413 9.0335 125.242 0.5019 112.35 0.1944 83.0491Z"
       id="path-1-8" />
    <path
       d="M0.491 79.7166C2.6941 57.7354 10.511 42.4907 21.9973 28.6 33.4836 14.7093 48.1818 1.4171 77.789 0.86 102.157 0.4017 121.566 7.7676 135.139 22.0546 148.4 36.0141 155.297 56.7289 155.087 82.5216 154.89 106.726 149.374 123.808 137.321 136.443 124.685 149.689 101.477 157.508 78.1008 157.949 56.3455 158.359 37.4035 152.351 22.7694 138.651 6.56601 123.551-1.67145 101.76 0.491 79.7166L0.491 79.7166Z"
       id="path-1-87" />
  </defs>
  <sodipodi:namedview
     inkscape:window-maximized="1"
     inkscape:window-y="-9"
     inkscape:window-x="-9"
     inkscape:window-height="1001"
     inkscape:window-width="1920"
     showgrid="false"
     inkscape:document-rotation="0"
     inkscape:current-layer="Page-1"
     inkscape:document-units="mm"
     inkscape:cy="74.229412"
     inkscape:cx="88.377487"
     inkscape:zoom="3.959798"
     inkscape:pageshadow="2"
     inkscape:pageopacity="0.0"
     borderopacity="1.0"
     bordercolor="#666666"
     pagecolor="#ffffff"
     id="base" />
  <metadata
     id="metadata1951">
    <rdf:RDF>
      <cc:Work
         rdf:about="">
        <dc:format>image/svg+xml</dc:format>
        <dc:type
           rdf:resource="http://purl.org/dc/dcmitype/StillImage" />
        <dc:title></dc:title>
      </cc:Work>
    </rdf:RDF>
  </metadata>
  <g
     id="layer1"
     inkscape:groupmode="layer"
     inkscape:label="Layer 1">
    <g
       transform="matrix(0.24839425,0,0,0.24839425,0.46001059,-0.09434954)"
       id="Page-1"
       stroke="none"
       stroke-width="1"
       fill="none"
       fill-rule="evenodd">
      <g
         transform="matrix(1.0138164,0,0,1.0138164,0.1880468,0.57772641)"
         id="Page-1-4"
         stroke="none"
         stroke-width="1"
         fill="none"
         fill-rule="evenodd">
        <g
           id="04_Circle">
          <path
             d="M 0.491,79.7166 C 2.6941,57.7354 10.511,42.4907 21.9973,28.6 33.4836,14.7093 48.1818,1.4171 77.789,0.86 c 24.368,-0.4583 43.777,6.9076 57.35,21.1946 13.261,13.9595 20.158,34.6743 19.948,60.467 -0.197,24.2044 -5.713,41.2864 -17.766,53.9214 -12.636,13.246 -35.844,21.065 -59.2202,21.506 -21.7553,0.41 -40.6973,-5.598 -55.3314,-19.298 C 6.56601,123.551 -1.67145,101.76 0.491,79.7166 Z"
             id="Path"
             fill="#e3e3e3"
             fill-rule="nonzero" />
          <g
             id="Clipped">
            <mask
               id="mask-2"
               fill="#ffffff">
              <use
                 y="0"
                 x="0"
                 width="100%"
                 height="100%"
                 xlink:href="#path-1-87"
                 id="use2796" />
            </mask>
            <g
               id="g2799" />
            <g
               id="_04_Front-link"
               mask="url(#mask-2)">
              <g
                 id="_04_Front"
                 transform="translate(31.9398,18.5309)">
                <g
                   id="g2901">
                  <g
                     id="Body"
                     fill-rule="nonzero"
                     transform="translate(0,93.8784)">
                    <g
                       id="BG-2"
                       fill="#ffffff"
                       transform="translate(39.0144,2.4384)">
                      <path
                         d="M 10.6172,16.5245 C 10.4276,16.5123 10.2485,16.433 10.1119,16.3009 L 7.62475,13.8138 c -0.31616,-0.3179 -0.31616,-0.8315 0,-1.1494 L 7.76326,12.5257 C 7.39236,12.3832 7.03006,12.2192 6.67817,12.0347 6.56943,12.1639 6.42221,12.2549 6.25803,12.2944 L 4.84815,12.5986 C 4.40957,12.6918 3.97805,12.4133 3.88218,11.9753 l -0.30407,-1.41 C 3.52777,10.3134 3.60152,10.0527 3.77635,9.86443 3.07543,9.16024 2.44458,8.38962 1.89269,7.56343 0.475899,10.0227 0.248161,12.9911 1.27321,15.6377 c 1.8057,0.4039 3.63999,0.6673 5.4864,0.7877 1.28272,0.089 2.57007,0.1104 3.85759,0.0991 z"
                         id="path2801" />
                      <path
                         d="m 6.96907,11.5667 c 0.38386,0.2172 0.78461,0.403 1.19835,0.5558 L 8.24691,12.043 C 7.82328,11.8989 7.41036,11.725 7.01125,11.5227 6.99589,11.5363 6.98602,11.5542 6.96907,11.5667 Z"
                         id="path2803" />
                      <path
                         d="m 18.3474,10.447 c -0.0034,0.0668 -0.0153,0.1329 -0.0355,0.1967 L 18.133,11.093 c 0.0036,0.11 -0.0154,0.2196 -0.0559,0.3219 l -0.5328,1.3402 c -0.1671,0.4161 -0.6388,0.6192 -1.0558,0.4547 l -1.3402,-0.5334 c -0.1002,-0.04 -0.1915,-0.0997 -0.2682,-0.1756 -0.1551,0.0557 -0.3048,0.1194 -0.4643,0.1688 0.0432,0.2517 -0.0364,0.5089 -0.2143,0.6921 l -2.4872,2.4872 v 0 l -0.4524,0.4525 c -0.1314,0.1265 -0.3022,0.204 -0.4838,0.2195 6.9834,0.0317 13.8536,-1.7634 19.9289,-5.2072 0.0871,-0.0513 0.2137,-0.0122 0.3518,0.0578 C 28.6127,7.6549 25.8062,4.18849 22.68,1.02254 22.5581,0.899282 22.4332,0.777606 22.3099,0.655076 c 7e-4,0.033406 0,0.066568 6e-4,0.099853 C 22.4453,4.4053 21.0012,7.93686 18.3474,10.447 Z"
                         id="path2805" />
                      <path
                         d="M 6.00871,8.71643 C 6.4473,8.62297 6.87899,8.90145 6.97468,9.33956 l 0.30407,1.40974 c 0.03369,0.1746 0.00793,0.3554 -0.07316,0.5135 0.38896,0.2377 0.8005,0.4363 1.22859,0.5928 l 1.67762,-1.6775 v 0 l 0.4523,-0.45218 c 0.318,-0.31605 0.8315,-0.31605 1.1495,0 l 1.9438,1.94378 c 0.4225,-0.1563 0.832,-0.3457 1.2246,-0.5664 0.0013,-0.0865 0.0168,-0.1722 0.0458,-0.2536 L 15.4613,9.50976 C 15.6283,9.09361 16.1,8.89044 16.5171,9.055 l 0.6134,0.24384 C 19.1644,6.83655 20.2141,3.70807 20.0769,0.517307 20.0756,0.434523 20.7953,0.477073 21.1168,0.614843 21.1154,0.451226 21.119,0.288341 21.1124,0.123871 20.0853,0.263225 13.0291,2.9757 5.97079,2.3355 4.84004,3.40253 3.81835,4.5795 2.92084,5.84899 3.37747,6.97122 3.97826,8.02924 4.70806,8.99636 Z"
                         id="path2807" />
                      <path
                         d="m 32.1991,13.1308 c -8.2763,4.7684 -20.5751,7.047 -30.20095,3.9821 1.34358,2.1066 3.1354,3.8907 5.24768,5.2253 0.47232,0.0285 0.9244,0.0744 1.41829,0.0845 6.14268,0 17.88678,-2.3676 25.08168,-6.7025 -0.4964,-0.8733 -1.0158,-1.7345 -1.5467,-2.5894 z"
                         id="path2809" />
                    </g>
                    <g
                       id="Shadow-2"
                       fill="#e3e3e3"
                       transform="translate(29.2608,1.2192)">
                      <path
                         d="m 11.8984,2.94034 c -0.1035,0.11376 -0.2007,0.23324 -0.3038,0.34735 0.2117,1.29799 0.5741,2.56685 1.0798,3.78087 0.8976,-1.2695 1.9192,-2.44646 3.05,-3.51349 0.0569,-0.05487 0.1041,-0.10778 0.162,-0.16289 -1.332,-0.1077 -2.6561,-0.2972 -3.9648,-0.56742 0.0105,0.04004 0.002,0.0827 -0.0232,0.11558 z"
                         id="path2812" />
                      <path
                         d="M 16.9994,23.5573 C 14.8871,22.2227 13.0953,20.4386 11.7517,18.332 10.3859,17.9017 9.06215,17.3479 7.79678,16.6774 6.0729,15.7655 4.4977,14.5967 3.12518,13.2113 c -0.90563,1.113 -1.826,2.2135 -2.712968,3.3414 2.587748,2.763 7.700958,6.464 16.587188,7.0046 z"
                         id="path2814" />
                      <path
                         d="m 31.0266,1.97267 c 0.1116,3.28911 -1.0451,6.49533 -3.2309,8.95563 0.2265,0.1735 0.3428,0.455 0.3048,0.7379 2.6537,-2.51042 4.0975,-6.04221 3.9624,-9.69268 0,-0.03329 0,-0.06645 -6e-4,-0.09985 -0.2539,-0.2525 -0.5029,-0.50743 -0.7624,-0.757 -0.2383,-0.01378 -0.4407,0.02913 -0.4355,0.1463 0.0014,0.02707 0,0.05377 9e-4,0.08083 0.0066,0.16447 0.003,0.32736 0.0044,0.49097 0.0914,0.03877 0.1559,0.08401 0.1569,0.1379 z"
                         id="path2816" />
                      <path
                         d="m 21.4674,17.0676 c -0.3179,0.3161 -0.8315,0.3161 -1.1494,0 l -2.4872,-2.4872 c -0.316,-0.3179 -0.316,-0.8314 0,-1.1493 L 18,13.2617 v 0 l -0.0795,0.0795 c -0.4137,-0.1527 -0.8145,-0.3386 -1.1983,-0.5558 -0.0923,0.072 -0.1994,0.1228 -0.3136,0.1486 l -1.41,0.3048 c -0.4385,0.0931 -0.87,-0.1853 -0.9659,-0.6232 l -0.304,-1.4101 C 13.6821,10.9801 13.7345,10.7454 13.8725,10.5612 12.2913,8.8001 11.1851,6.66493 10.6585,4.35742 8.2014,7.10468 5.80949,9.90884 3.48277,12.7699 c 1.59886,2.1799 4.57309,3.4003 7.54393,4.087 -1.0251,-2.6466 -0.7973,-5.615 0.6195,-8.07427 0.5519,0.82619 1.1827,1.59677 1.8836,2.30097 -0.1748,0.1883 -0.2486,0.449 -0.1982,0.7009 l 0.3041,1.41 c 0.0958,0.438 0.5273,0.7165 0.9659,0.6233 l 1.4099,-0.3042 c 0.1642,-0.0395 0.3114,-0.1305 0.4201,-0.2597 0.3519,0.1845 0.7142,0.3485 1.0851,0.491 l -0.1385,0.1387 c -0.3161,0.3179 -0.3161,0.8315 0,1.1494 l 2.4872,2.4871 c 0.1366,0.1321 0.3156,0.2114 0.5052,0.2236 0.0536,0.0039 0.1074,0.0024 0.1607,-0.0043 0.1817,-0.0156 0.3525,-0.093 0.4838,-0.2195 z"
                         id="path2818" />
                      <path
                         d="m 18.188,13.0747 v 0 l 1.6776,-1.6776 v 0 z"
                         id="path2820" />
                      <path
                         d="m 24.9014,13.8956 1.3402,0.5334 c 0.4171,0.1645 0.8887,-0.0386 1.0558,-0.4547 l 0.5333,-1.3402 c 0.0405,-0.1023 0.0595,-0.2119 0.0559,-0.3219 l -0.3545,0.8908 c -0.1669,0.4161 -0.6386,0.6193 -1.0557,0.4547 l -1.3402,-0.5334 c -0.0734,-0.0333 -0.1413,-0.0777 -0.2012,-0.1317 -0.3354,0.1511 -0.68,0.2806 -1.0319,0.3879 l 0.051,0.0511 c 0.1194,0.1249 0.1947,0.2854 0.2143,0.4572 0.1594,-0.0488 0.3092,-0.1131 0.4643,-0.1688 0.0769,0.076 0.1683,0.1357 0.2687,0.1756 z"
                         id="path2822" />
                    </g>
                    <path
                       d="M 91.4688,60.7297 C 87.1162,39.4645 80.388,17.9508 64.1888,2.71126 63.4591,2.02473 59.3928,1.2092 60.0435,1.82124 c 0.1789,0.16813 0.3414,0.34467 0.5178,0.51438 0.2595,0.24957 0.5086,0.50451 0.7624,0.757 0.1232,0.12192 0.2481,0.24384 0.3701,0.36747 3.1262,3.16595 5.9327,6.63231 8.3787,10.34891 -0.138,-0.0706 -0.2646,-0.1097 -0.3517,-0.0578 -6.0752,3.4438 -12.9454,5.239 -19.9287,5.2074 -0.0532,0.0067 -0.1069,0.0081 -0.1604,0.0042 -1.2875,0.0112 -2.5748,-0.0101 -3.8571,-0.0987 -1.8464,-0.1205 -3.6807,-0.3838 -5.4864,-0.7878 -2.9708,-0.6866 -5.945,-1.907 -7.5439,-4.087 2.3335,-2.8547 4.7255,-5.65883 7.1757,-8.41244 0.5266,2.30752 1.6328,4.44264 3.2141,6.20374 -0.1381,0.1843 -0.1905,0.4189 -0.1439,0.6444 l 0.3041,1.41 c 0.0959,0.4379 0.5273,0.7163 0.9658,0.6232 l 1.41,-0.3048 c 0.1142,-0.0258 0.2213,-0.0766 0.3136,-0.1486 0.0165,-0.0122 0.0268,-0.0303 0.0422,-0.044 0.3991,0.2024 0.812,0.3763 1.2357,0.5204 l -0.1693,0.1693 c -0.316,0.318 -0.316,0.8314 0,1.1494 l 2.4872,2.4871 c 0.318,0.3161 0.8315,0.3161 1.1495,0 v 0 l 2.4871,-2.4871 c 0.2967,-0.3257 0.2967,-0.8237 0,-1.1494 l -0.0509,-0.0511 c 0.3518,-0.1072 0.6964,-0.2367 1.0318,-0.3878 0.0599,0.0539 0.1278,0.0984 0.2013,0.1317 l 1.3401,0.5334 c 0.4171,0.1645 0.8888,-0.0387 1.0557,-0.4548 l 0.3546,-0.8907 0.1781,-0.4492 c 0.0202,-0.0638 0.0321,-0.1299 0.0355,-0.1968 0.038,-0.2828 -0.0783,-0.5643 -0.3048,-0.7378 C 59.2433,9.68708 60.3999,6.48086 60.2883,3.19174 60.2874,3.13786 60.2229,3.09262 60.1322,3.05349 59.8107,2.91523 59.091,2.87268 59.0923,2.95595 59.2295,6.14672 58.1798,9.27519 56.1459,11.7375 l -0.6134,-0.2439 c -0.4171,-0.1645 -0.8888,0.0387 -1.0558,0.4548 l -0.5333,1.3401 c -0.029,0.0815 -0.0445,0.1672 -0.0457,0.2536 -0.3927,0.2208 -0.8022,0.4102 -1.2247,0.5665 l -1.9438,-1.9438 c -0.318,-0.316 -0.8315,-0.316 -1.1495,0 l -0.4523,0.4522 -1.6777,1.6778 c -0.4281,-0.1566 -0.8396,-0.3552 -1.2286,-0.5928 0.0811,-0.1582 0.1068,-0.339 0.0731,-0.5135 l -0.3051,-1.411 c -0.0957,-0.4381 -0.5274,-0.7166 -0.966,-0.6232 l -1.3006,0.2805 C 42.9927,10.4676 42.3919,9.40962 41.9352,8.28739 41.4295,7.07338 41.0671,5.80452 40.8554,4.50653 40.9585,4.39241 41.0557,4.27293 41.1592,4.15918 41.1844,4.12629 41.1929,4.08364 41.1824,4.0436 41.0705,3.34683 37.7814,0.660197 37.2419,1.25407 28.2285,11.1771 18.834,22.1727 12.2645,33.9356 6.52211,44.2187 1.65177,55.7883 0.405384,67.5809 c -0.434401,4.1105 -0.367223,6.7731 2.655176,9.393 0.15337,0.1328 0.30748,0.2657 0.47634,0.3986 0.67495,0.5236 1.38887,0.995 2.13555,1.41 3.34302,1.8488 7.22245,2.4849 10.98085,1.8005 -0.1659,-0.3353 -0.3886,-0.6394 -0.6584,-0.8987 1.327,0.0735 2.6462,0.2514 3.9452,0.532 7.6252,1.6148 13.6307,5.8429 25.2065,1.1403 10.1247,-4.1133 13.9216,3.7966 27.0521,-1.1075 0.2484,-0.0303 0.4979,-0.0532 0.748,-0.0732 1.1995,-0.0871 2.4035,-0.0962 3.6042,-0.0272 3.6826,1.1518 7.6012,1.3283 11.3724,0.5121 8.2647,-2.3114 4.7804,-13.8974 3.5455,-19.9311 z M 47.6785,24.8608 C 47.1846,24.8507 46.7325,24.8049 46.2602,24.7763 37.374,24.2357 32.2608,20.5347 29.673,17.7718 c 0.887,-1.1279 1.8074,-2.2285 2.713,-3.3415 1.3725,1.3855 2.9477,2.5543 4.6716,3.4662 1.2653,0.6704 2.5891,1.2243 3.9549,1.6546 9.6259,3.0651 21.9247,0.7864 30.201,-3.9819 0.5309,0.855 1.0503,1.7163 1.5466,2.5894 -7.1948,4.3348 -18.9389,6.7024 -25.0816,6.7024 z"
                       id="Stroke-2"
                       fill="#000000" />
                  </g>
                  <g
                     id="Head"
                     fill-rule="nonzero">
                    <g
                       id="BG-3"
                       fill="#ffffff"
                       transform="translate(10.9728,1.2192)">
                      <path
                         d="m 17.8221,35.044 c 0.4612,-5.9888 1.8719,-11.8662 4.1791,-17.4119 -2.8578,5.3729 -5.2473,10.9822 -7.1418,16.7654 0.9943,0.1984 1.9819,0.4139 2.9627,0.6465 z"
                         id="path2827" />
                      <path
                         d="m 25.5666,12.5914 c -3.7803,6.8984 -6.0196,14.5346 -6.5635,22.3821 -0.0093,0.1226 -0.2683,0.1971 -0.5431,0.2358 1.8993,0.4714 3.7739,1.0167 5.6216,1.6604 -0.275,-10.0462 1.837,-22.4236 8.5314,-30.78418 -2.6077,1.87021 -4.9744,4.05538 -7.0464,6.50588 z"
                         id="path2829" />
                      <path
                         d="M 45.0446,0.0691286 C 44.9081,0.105705 44.7601,0.145207 44.5918,0.193121 56.1058,7.72144 55.3886,27.0269 53.69,38.7393 55.9979,38.2592 58.3268,37.7152 60.6882,37.1622 60.767,27.4657 59.9028,16.9998 54.7846,8.48722 52.8618,5.29011 49.8238,1.29016 46.0627,0.108996 45.7246,0.093025 45.388,0.0741274 45.0446,0.0691286 Z"
                         id="path2831" />
                      <path
                         d="m 39.7111,8.10524 c 0.216,-1.30454 0.3151,-3.142 0.6254,-4.80267 -0.475,0.56777 -0.913,1.16561 -1.311,1.78978 -1.3287,2.32919 -2.4823,4.75396 -3.4513,7.25425 -3.2117,8.6173 -4.635,17.7983 -4.1831,26.9836 2.5561,0.6138 5.1705,0.9522 7.7986,1.0096 -1.477,-10.7082 -1.3011,-21.5797 0.5214,-32.23456 z"
                         id="path2833" />
                      <path
                         d="M 48.8614,1.04851 C 48.8038,1.03225 48.7474,1.01188 48.6928,0.987552 59.994,7.26716 61.7916,25.6561 61.7842,36.9052 62.0358,36.8464 62.2854,36.7878 62.5378,36.7291 63.383,36.5326 64.2544,36.283 65.1316,36.0426 65.154,24.4793 62.4425,5.06419 48.8614,1.04851 Z"
                         id="path2835" />
                      <path
                         d="m 48.4437,39.6924 c 1.3289,-0.2013 2.6627,-0.4398 4.0014,-0.7042 C 54.1656,27.6496 55.2483,8.09073 44.1204,0.331257 43.9275,0.389534 43.7156,0.456834 43.4952,0.528523 49.361,12.2197 49.6946,26.9769 48.4437,39.6924 Z"
                         id="path2837" />
                      <path
                         d="M 0.214945,103.236 C 0.678235,108.47 2.2469,113.546 4.8173,118.128 0.9817,106.659 2.22041,93.3462 6.51199,82.1046 5.52728,80.6821 4.65552,79.1846 3.90473,77.626 3.14883,79.2295 2.456,80.8754 1.82624,82.5637 0.28895,92.4457 -0.151059,100.028 0.214945,103.236 Z"
                         id="path2839" />
                      <path
                         d="m 17.8356,35.2971 c -0.992,-0.2976 -2.0047,-0.5742 -3.0105,-0.8047 l -0.0488,0.1341 c 1.0989,0.2167 2.1145,0.4424 3.0593,0.6706 z"
                         id="path2841" />
                      <path
                         d="m 25.3013,37.0448 c 0.0021,0.0679 -0.157,0.1163 -0.3589,0.1435 0.5312,0.1951 1.0656,0.377 1.5925,0.589 1.2061,0.4797 2.4376,0.8927 3.6891,1.2371 C 29.8265,26.8137 31.9511,12.5008 39.329,2.17091 37.945,2.81026 36.5977,3.52627 35.2934,4.3156 27.3481,12.6471 24.9656,26.2719 25.3013,37.0448 Z"
                         id="path2843" />
                      <path
                         d="M 68.611,15.819 C 66.0365,11.6452 62.6922,7.99873 58.7561,5.07382 67.5559,11.9701 71.607,24.7207 72.2742,35.5897 c 0.001,0.0169 -0.1054,0.0169 -0.2489,0.0039 1.1793,0.4545 2.1767,1.2837 2.8389,2.3601 2.2353,3.3861 2.0655,8.6062 2.2217,12.4614 -0.0844,2.0872 0.3528,4.1625 1.2721,6.0383 C 78.3035,53.8273 78.1065,51.2031 77.9244,48.6688 77.1096,37.3251 74.7227,25.581 68.611,15.819 Z"
                         id="path2845" />
                      <path
                         d="M 42.8954,0.730057 C 42.7358,0.785043 42.5732,0.842345 42.4033,0.903671 39.147,13.7951 38.4355,27.1978 40.3087,40.3616 c 2.3598,-0.0132 4.716,-0.1853 7.0526,-0.5151 1.3066,-12.5019 1.1101,-27.3414 -4.4659,-39.116443 z"
                         id="path2847" />
                      <path
                         d="m 15.5204,90.9299 c -1.1227,3.7767 -1.5941,7.7171 -1.3941,11.6521 0.2328,-3.4648 1.3722,-6.8076 3.304,-9.6933 0.2038,-0.2095 0.4938,-0.3118 0.7839,-0.2767 -0.9248,-0.5218 -1.8201,-1.0867 -2.6938,-1.6821 z"
                         id="path2849" />
                      <path
                         d="M 3.37926,76.4725 C 3.25551,76.1906 3.14029,75.9028 3.02374,75.6156 2.85902,76.4868 2.70382,77.342 2.5541,78.1881 2.82168,77.6105 3.09673,77.0386 3.37926,76.4725 Z"
                         id="path2851" />
                      <path
                         d="m 72.6184,78.3855 c 2.2324,-4.0393 3.9289,-8.3525 5.0466,-12.8303 0.0869,-0.4105 0.147,-0.8282 0.2159,-1.2436 -0.423,0.3806 -0.7922,0.8171 -1.0973,1.2975 -1.4413,2.4627 -1.7762,5.927 -3.0026,8.5554 -1.7796,3.6912 -4.2311,7.0186 -7.2291,9.8119 -2.8504,2.7975 -5.9356,5.3454 -9.2215,7.6155 5.9903,-3.2459 11.2059,-7.7514 15.288,-13.2064 z"
                         id="path2853" />
                      <path
                         d="m 52.1754,1.04461 c 6.1008,2.38875 11.4209,6.42037 15.3705,11.64789 6.7258,8.848 9.7822,20.0395 11.0834,30.9189 0.7136,5.1261 1.0387,10.2989 0.9724,15.4741 0.3381,0.9448 0.3318,1.9786 -0.0178,2.9192 -0.0624,0.1974 -0.1422,0.3887 -0.2386,0.5718 -0.0639,0.5906 -0.1236,1.1827 -0.2129,1.7643 -0.1256,0.8169 -0.291,1.6283 -0.4897,2.4333 0.9134,-2.7926 1.5029,-5.6809 1.7567,-8.6081 C 82.1993,37.2045 73.8872,6.82898 52.1754,1.04461 Z"
                         id="path2855" />
                      <path
                         d="M 18.1797,128.802 C 8.06892,117.403 5.22469,101.288 10.8224,87.1159 9.56058,85.9005 8.3948,84.5892 7.33544,83.1938 2.93279,95.403 2.11519,109.901 7.43188,121.758 c 2.84972,3.311 6.57462,5.753 10.74782,7.044 z"
                         id="path2857" />
                      <path
                         d="m 16.9821,119.538 c -1.5461,-3.334 -2.5027,-6.91 -2.8274,-10.571 -1.5162,-6.167 -1.3849,-12.6243 0.381,-18.7249 -0.951,-0.6941 -1.8743,-1.4242 -2.7523,-2.2079 -5.35532,13.9908 -2.51751,29.7968 7.3702,41.0508 1.3035,0.353 2.6323,0.604 3.9746,0.752 0.6427,-0.109 1.1633,-0.256 1.2649,-0.456 -0.2256,0.445 -6.6068,-8.198 -7.411,-9.843 z"
                         id="path2859" />
                      <path
                         d="M 47.7583,0.319187 C 49.687,0.608907 51.5722,1.13721 53.3706,1.89195 52.2321,1.3637 51.0608,0.909135 49.8641,0.531084 48.9439,0.367223 47.9987,0.251399 47.0342,0.174955 47.5906,0.409824 48.1337,0.6752 48.661,0.969874 48.4723,0.851977 49.3015,0.895137 49.5051,0.955243 63.2267,5.0125 66.2625,23.7256 66.3273,35.7304 67.8915,35.2568 69.5396,35.1273 71.1586,35.3507 71.1277,35.3269 71.1075,35.2918 71.1024,35.2532 70.277,21.8064 64.0466,3.08372 48.2912,0.691896 48.0466,0.654345 47.0066,0.205069 47.7583,0.319187 Z"
                         id="path2861" />
                      <path
                         d="m 70.7419,74.9747 c 1.9775,-3.7776 2.782,-7.8151 5.0213,-11.201 0.881,-1.3324 1.7763,-2.3561 1.7402,-4.067 -0.0502,-2.3841 -2.1205,-3.3271 -2.7027,-5.1947 -1.3451,-4.3151 2.0699,-18.3018 -5.2567,-18.2425 -2.9185,0.0244 -6.3894,1.4968 -9.2376,2.1303 -3.9818,0.8855 -7.9791,1.7361 -12.0099,2.3701 -3.4183,0.578 -6.8934,0.7458 -10.3516,0.4999 -4.0544,1.1797 -22.1337,7.3894 -22.5186,24.434 -0.3862,17.0766 16.704,28.9901 20.4891,31.4168 5.1052,0.0945 10.1563,-1.0573 14.7158,-3.3557 7.7279,-3.8611 16.0536,-11.0405 20.1107,-18.7902 z M 25.3952,72.2498 c -1.1582,0 -2.096,-1.8359 -2.096,-4.1008 0,-2.2649 0.9387,-4.101 2.096,-4.101 1.1573,0 2.0961,1.8361 2.0961,4.101 0,2.2649 -0.9385,4.1008 -2.0961,4.1008 z m 22.0639,0.662 c -1.1583,0 -2.0962,-1.836 -2.0962,-4.1009 0,-2.2649 0.9388,-4.101 2.0962,-4.101 1.1574,0 2.0959,1.836 2.0959,4.101 0,2.265 -0.9384,4.1013 -2.0959,4.1013 z"
                         id="Shape" />
                    </g>
                    <g
                       id="Shadow-3"
                       fill="#e3e3e3"
                       transform="translate(4.8768)">
                      <path
                         d="m 36.1293,7.58342 0.0113,0.01134 c -0.0122,0.00488 -0.0244,0.01219 -0.0366,0.01658 -1.6937,1.90499 -3.1824,3.98286 -4.4414,6.19926 2.072,-2.4505 4.4387,-4.63567 7.0464,-6.50589 1.7146,-2.15944 3.7727,-4.02224 6.0918,-5.51383 -0.768,0.12566 -1.532,0.27034 -2.292,0.43404 -2.3764,1.46555 -4.5257,3.27083 -6.3795,5.3585 z"
                         id="path2865" />
                      <path
                         d="m 20.9554,35.6167 c 1.8945,-5.7832 4.284,-11.3925 7.1418,-16.7654 1.5686,-3.7942 3.7067,-7.3269 6.3406,-10.47637 -9.165,4.73217 -14.4702,17.30657 -17.4752,26.33297 1.3619,0.2884 2.6751,0.6452 3.7673,0.8603 0.0761,0.0149 0.15,0.0335 0.2255,0.0485 z"
                         id="path2867" />
                      <path
                         d="M 48.6991,1.35538 C 48.6302,1.61032 48.566,1.86745 48.4993,2.12348 48.6692,2.06252 48.8318,2.00485 48.9914,1.94987 48.8969,1.74967 48.7968,1.55326 48.6991,1.35538 Z"
                         id="path2869" />
                      <path
                         d="m 24.2757,130.022 c -4.1734,-1.292 -7.8986,-3.733 -10.7484,-7.044 1.4022,3.144 3.2526,6.068 5.4934,8.682 2.2075,0.164 4.4262,0.093 6.6185,-0.214 -0.4635,-0.468 -0.9267,-0.936 -1.3635,-1.424 z"
                         id="path2871" />
                      <path
                         d="M 8.6501,79.4072 C 8.79982,78.5612 8.9549,77.706 9.11974,76.8347 8.97075,76.469 8.80275,76.1154 8.66583,75.7411 4.15589,63.415 5.13673,48.8843 8.81213,36.4529 9.07351,35.9988 9.41819,35.5981 9.82809,35.2718 9.95058,33.4775 10.2427,31.6988 10.7004,29.9595 4.7928,41.7114 2.62847,55.2811 2.75295,68.641 c 1.77774,2.5114 3.68215,4.9308 5.70586,7.2486 l 0.05828,0.1447 C 5.83485,82.197 2.7015,87.6463 1.35417,94.3931 -0.525475,103.809 0.836005,117.217 7.62329,125.288 0.188854,111.307 2.06508,93.6179 8.6501,79.4072 Z"
                         id="path2873" />
                      <path
                         d="m 12.6831,34.2789 c 3.3612,-13.6595 12.958,-24.939 25.9027,-30.44464 0.1989,-0.0419 0.4057,-0.0263 0.596,0.04499 0.6157,-0.46882 1.2525,-0.91155 1.9104,-1.3282 -0.3089,0.07681 -0.617,0.15696 -0.9242,0.24043 -3.9568,1.6144 -7.7437,3.61736 -11.305,5.97944 -1.9985,1.42818 -3.9112,2.97268 -5.7282,4.62568 -2.9222,2.6636 -5.5499,5.6334 -7.8377,8.8583 -2.3875,3.7632 -3.9037,8.0124 -4.4379,12.4368 0.5826,-0.2323 1.198,-0.3716 1.8239,-0.4128 z"
                         id="path2875" />
                      <path
                         d="m 50.519,1.29894 c 0.0574,0.03657 0.1118,0.07607 0.1688,0.11338 C 50.8561,1.36441 51.0047,1.3243 51.1406,1.28833 50.9365,1.2854 50.7249,1.29808 50.519,1.29894 Z"
                         id="path2877" />
                      <path
                         d="M 12.8934,24.1474 C 16.3882,17.6172 21.4999,12.0929 27.7396,8.10268 23.3592,10.7417 19.4193,14.0506 16.063,17.9091 10.2204,24.8971 5.96734,33.0721 3.59847,41.8673 1.97181,47.6611 0.877512,53.5913 0.329184,59.5841 0.0908357,61.9364 0.505648,64.3089 1.52802,66.4408 1.69579,51.5007 4.85059,36.458 12.8934,24.1474 Z"
                         id="path2879" />
                      <path
                         d="m 20.9215,35.7118 c -1.3431,-0.318 -2.7096,-0.5269 -4.0863,-0.6247 l -0.0244,0.0732 c 1.4676,0.2091 2.8199,0.4405 4.0626,0.6853 z"
                         id="path2881" />
                      <path
                         d="m 17.654,131.472 c -2.9981,-3.576 -5.286,-7.691 -6.7407,-12.125 -2.5704,-4.582 -4.13907,-9.658 -4.60235,-14.892 -0.36576,-3.207 0.074,-10.7898 1.61129,-20.6724 -5.3985,14.4632 -5.86179,31.5224 2.83186,44.5104 1.1641,0.904 2.4327,1.664 3.7786,2.265 0.9993,0.431 2.0475,0.738 3.1213,0.914 z"
                         id="path2883" />
                      <path
                         d="m 35.0688,7.10684 c 0.1497,-0.02389 0.303,0.00577 0.433,0.08376 0.7585,-0.8153 1.561,-1.58861 2.4039,-2.31648 C 25.9494,10.6326 17.1679,21.4034 13.9355,34.2745 c 0.6098,0.0341 1.2172,0.1025 1.8194,0.205 3.1737,-9.589 8.9778,-23.3638 19.3139,-27.37266 z"
                         id="path2885" />
                      <path
                         d="m 45.4253,3.38938 c 0.458,-0.6413 0.9372,-1.26586 1.4375,-1.87367 -0.1707,0.01914 -0.3372,0.02865 -0.5092,0.05035 -1.8225,1.09805 -3.4918,2.43228 -4.9644,3.96801 1.3044,-0.78935 2.6519,-1.50536 4.0361,-2.14469 z"
                         id="path2887" />
                      <path
                         d="M 49.5912,1.74772 C 49.8116,1.67603 50.0235,1.60873 50.2164,1.55046 50.0991,1.46865 49.9794,1.3894 49.8593,1.31015 c -0.1604,0.00403 -0.318,0.00183 -0.4795,0.00817 0.0731,0.14167 0.1398,0.28688 0.2114,0.4294 z"
                         id="path2889" />
                      <path
                         d="m 26.2692,131.37 0.0525,-0.006 c 0.342,-0.045 1.8021,-0.121 2.9024,-0.307 -1.3423,-0.148 -2.6712,-0.4 -3.9746,-0.753 0.3259,0.366 0.6787,0.711 1.0197,1.066 z"
                         id="path2891" />
                      <path
                         d="M 21.5217,66.923 C 21.9072,49.8786 39.9865,43.6687 44.0403,42.489 42.7522,42.3878 41.4707,42.2148 40.2019,41.971 37.3106,41.3398 34.4822,40.4488 31.7511,39.3088 30.1696,38.6928 27.1749,37.4891 23.9309,36.5163 22.9862,36.2881 21.9706,36.0624 20.8721,35.8457 19.6294,35.6009 18.277,35.3695 16.8095,35.1604 l -0.0158,0.0466 c -0.0293,0.0894 -0.423,-0.0122 -0.7396,-0.1481 -2.2136,-0.0208 -4.0194,0.4877 -4.8638,1.9308 -3.39851,11.4945 -4.40545,24.604 -1.1315,36.2266 4.0627,14.426 16.9748,24.5786 31.952,25.1235 C 38.2257,95.9131 21.1354,83.9996 21.5217,66.923 Z"
                         id="path2893" />
                    </g>
                    <g
                       id="Eyes"
                       fill="#000000"
                       transform="translate(34.1376,64.6176)">
                      <path
                         d="m 2.2304,0.649956 c -1.15824,0 -2.096044,1.836114 -2.096044,4.101024 0,2.26491 0.938784,4.10078 2.096044,4.10078 1.15727,0 2.09605,-1.83587 2.09605,-4.10078 0,-2.26491 -0.93842,-4.101024 -2.09605,-4.101024 z"
                         id="Right-2" />
                      <path
                         d="m 24.2943,1.31186 c -1.1583,0 -2.0962,1.83599 -2.0962,4.10102 0,2.26503 0.9388,4.1009 2.0962,4.1009 1.1574,0 2.0959,-1.83599 2.0959,-4.1009 0,-2.26491 -0.9384,-4.10102 -2.0959,-4.10102 z"
                         id="Left-2" />
                    </g>
                    <path
                       d="M 96.0372,50.9504 C 94.7344,28.3488 85.4282,5.53675 61.0129,0.824667 47.8668,-1.63259 34.2968,1.63526 23.7104,9.80761 13.8185,17.3263 7.43407,28.3395 3.92278,40.1203 1.97645,46.6551 -1.56704,57.4294 0.7709,64.0568 c 0.71615,1.7538 1.69067,3.3906 2.89121,4.856 0.95573,1.288 4.82803,4.6343 4.93362,6.1735 0.05315,0.7735 -1.47975,2.6545 -1.81661,3.3137 -7.373236,14.3995 -9.22179,32.142 1.27516,45.557 7.47032,9.547 20.94582,10.774 32.06762,7.819 0.1316,-0.06 0.1496,-0.144 0.0539,-0.253 -4.7992,-3.97 -8.1311,-9.432 -9.4642,-15.515 -1.2238,-6.163 -1.5164,-14.817 2.1215,-20.3682 4.8984,2.1179 10.147,3.3096 15.4798,3.5147 4.4169,0.1539 8.8126,-0.678 12.8678,-2.4354 1.0564,0.4608 2.7204,1.1388 3.5966,0.8474 C 85.2574,90.7546 97.275,72.4219 96.0372,50.9504 Z M 46.8876,98.3398 C 31.9106,97.7946 18.9989,87.6421 14.9362,73.2164 11.6623,61.5939 12.6692,48.4843 16.0677,36.9898 c 0.8444,-1.443 2.6502,-1.9516 4.8638,-1.9307 0.317,0.1362 0.7103,0.2375 0.7397,0.148 l 0.0157,-0.0466 0.0244,-0.0731 c 1.3767,0.0977 2.7432,0.3066 4.0862,0.6247 1.0059,0.2303 2.0185,0.5068 3.0105,0.8046 3.2439,0.9728 6.2386,2.1766 7.8202,2.7926 2.731,1.14 5.5594,2.031 8.4507,2.6621 1.2689,0.2439 2.5503,0.4169 3.8385,0.5181 3.4581,0.2459 6.9332,0.078 10.3516,-0.4999 4.0308,-0.634 8.028,-1.4846 12.0098,-2.3701 2.8482,-0.634 6.3191,-2.1065 9.2377,-2.1303 7.3269,-0.0598 3.9119,13.9269 5.257,18.242 0.5822,1.8676 2.6525,2.8106 2.7027,5.1947 0.0366,1.7109 -0.8592,2.7346 -1.7402,4.067 -2.2393,3.3862 -3.0438,7.4234 -5.0213,11.201 -4.0571,7.7497 -12.3828,14.9291 -20.1112,18.7902 -4.5595,2.2984 -9.6107,3.4503 -14.7159,3.3557 z M 15.6309,128.293 C 6.93725,115.305 7.40054,98.2458 12.799,83.7826 c 0.6288,-1.6846 1.3217,-3.3306 2.0785,-4.9378 0.7508,1.5587 1.6226,3.0561 2.6073,4.4786 -4.2916,11.2417 -5.5303,24.5546 -1.6947,36.0236 1.4545,4.434 3.7422,8.549 6.7402,12.125 -1.0737,-0.176 -2.1219,-0.483 -3.1211,-0.914 -1.3458,-0.601 -2.6144,-1.361 -3.7783,-2.265 z M 18.8123,34.2745 C 22.0445,21.4032 30.826,10.6321 42.7825,4.87351 41.9396,5.60158 41.1371,6.37509 40.3786,7.1906 40.2486,7.11261 40.0953,7.08295 39.9456,7.10684 29.6095,11.1157 23.8054,24.8905 20.6313,34.479 20.0293,34.3767 19.422,34.3084 18.8123,34.2745 Z M 51.7396,1.51608 C 51.2403,2.12494 50.7611,2.7495 50.3021,3.38974 42.9243,13.7197 40.7997,28.0326 41.1968,40.2336 c -1.2516,-0.3442 -2.4833,-0.7571 -3.6895,-1.2368 -0.5269,-0.212 -1.0607,-0.3942 -1.5925,-0.589 0.2019,-0.0271 0.361,-0.0755 0.359,-0.1435 C 35.938,27.4915 38.3206,13.8667 46.2656,5.5348 47.7385,3.9989 49.408,2.66453 51.2308,1.56643 51.4024,1.54473 51.5687,1.53522 51.7396,1.51608 Z m 2.9965,-0.20593 c 0.1201,0.07925 0.2398,0.1585 0.3571,0.24031 11.1279,7.75947 10.0452,27.31784 8.3247,38.65694 -1.3387,0.2644 -2.6722,0.5029 -4.0014,0.7042 C 60.6678,28.1961 60.3338,13.4389 54.468,1.74772 54.3964,1.6052 54.3297,1.45999 54.2566,1.31832 54.4181,1.31198 54.5757,1.31418 54.7361,1.31015 Z M 51.2815,41.5803 C 49.4086,28.4167 50.1202,15.0142 53.3766,2.12287 c 0.0667,-0.25603 0.1309,-0.51206 0.1998,-0.76809 0.0975,0.19787 0.1978,0.39428 0.2926,0.59387 5.576,11.77505 5.7726,26.61515 4.4659,39.11645 -2.3369,0.3301 -4.6933,0.5024 -7.0534,0.5157 z m -8.9176,-1.032 C 41.912,31.363 43.3353,22.182 46.547,13.5647 47.516,11.0646 48.6697,8.64006 49.9983,6.31107 50.3963,5.68689 50.8343,5.08905 51.3093,4.52128 50.999,6.18195 50.8999,8.01917 50.6838,9.32395 48.8614,19.9786 48.6856,30.8499 50.1625,41.5579 47.5344,41.5007 44.92,41.1624 42.3639,40.5488 Z M 43.5853,7.30471 C 36.8909,15.6653 34.7789,28.0433 35.054,38.0895 c -1.8477,-0.6437 -3.7224,-1.1889 -5.6217,-1.6604 0.2744,-0.0387 0.5338,-0.1132 0.5431,-0.2358 0.5439,-7.8477 2.7834,-15.4841 6.564,-22.3827 1.2593,-2.2167 2.7483,-4.29474 4.4424,-6.19987 0.0122,-0.00487 0.0244,-0.01219 0.0366,-0.01658 L 41.0061,7.58342 C 42.86,5.49597 45.0092,3.69089 47.3855,2.22553 48.1454,2.06167 48.9094,1.91699 49.6776,1.79149 47.3584,3.28285 45.3001,5.14544 43.5853,7.30471 Z M 39.3146,8.37493 C 36.6807,11.5244 34.5426,15.0571 32.974,18.8513 30.6668,24.397 29.2561,30.2744 28.7949,36.2632 27.8145,36.0291 26.8269,35.8137 25.8323,35.617 25.7568,35.602 25.6829,35.5833 25.6073,35.5682 24.5146,35.3531 23.2014,34.9963 21.84,34.7079 24.8444,25.6815 30.1496,13.1071 39.3146,8.37493 Z M 73.5106,37.9489 C 73.2582,38.0076 73.0086,38.0662 72.757,38.125 72.7644,26.8754 70.9668,8.48624 59.6656,2.20736 c 0.0546,0.02433 0.111,0.0447 0.1686,0.06096 13.5811,4.01507 16.2926,23.43018 16.2702,34.99408 -0.8772,0.2402 -1.7486,0.49 -2.5938,0.6865 z M 65.7565,9.70642 c 5.1182,8.51258 5.9823,18.97848 5.9036,28.67558 -2.361,0.5532 -4.6899,1.0973 -6.9982,1.5772 C 66.3604,28.2467 67.0776,8.94125 55.5636,1.41293 55.5066,1.37562 55.4523,1.33612 55.3948,1.29955 c 0.206,-8.6e-4 0.4175,-0.01354 0.6218,-0.01061 0.3435,0.005 0.6801,0.02438 1.0182,0.03987 3.7618,1.18055 6.7998,5.1805 8.7221,8.37761 z M 28.0116,13.3966 c 1.817,-1.653 3.7297,-3.1975 5.7282,-4.62568 C 37.3011,6.40901 41.088,4.40622 45.0448,2.79197 45.352,2.7089 45.6601,2.62876 45.969,2.55154 45.3121,2.96997 44.6753,3.4127 44.0586,3.87974 43.8683,3.80845 43.6615,3.79284 43.4627,3.83475 30.5179,9.34039 20.9211,20.6199 17.5599,34.2794 c -0.6257,0.0412 -1.2411,0.1805 -1.8236,0.4128 0.5342,-4.4245 2.0505,-8.6736 4.4379,-12.4368 2.2877,-3.2251 4.9153,-6.1951 7.8374,-8.8588 z m 60.0471,38.2371 c -0.1562,-3.8552 0.0136,-9.0753 -2.2217,-12.4614 -0.6623,-1.0762 -1.6597,-1.9051 -2.8389,-2.3595 0.1435,0.013 0.2498,0.013 0.2489,-0.0039 -0.6672,-10.869 -4.7183,-23.6196 -13.5181,-30.51588 3.9361,2.92491 7.2804,6.57138 9.8549,10.74518 6.1117,9.762 8.4986,21.5067 9.3134,32.8498 0.1821,2.5343 0.3791,5.1585 0.4336,7.7846 -0.9194,-1.876 -1.3566,-3.9515 -1.2721,-6.0389 z M 59.2643,1.91073 C 75.0194,4.30256 81.2498,23.0252 82.0756,36.472 c 0.005,0.0387 0.0252,0.0738 0.0562,0.0975 -1.619,-0.2234 -3.2671,-0.0939 -4.8313,0.3797 C 77.2353,24.9448 74.1995,6.2317 60.4779,2.17444 60.2743,2.11434 59.4451,2.07118 59.6338,2.18907 59.1065,1.8944 58.5634,1.62902 58.007,1.39416 c 0.965,0.07644 1.9097,0.19226 2.8299,0.35612 1.1968,0.37817 2.368,0.83286 3.5065,1.36124 C 62.545,2.35678 60.6598,1.82847 58.7311,1.53875 57.9794,1.42427 59.0194,1.87354 59.2643,1.91073 Z M 5.20598,59.5841 C 5.75431,53.5913 6.84861,47.6611 8.47527,41.8673 10.8441,33.0719 15.0972,24.8969 20.9398,17.9087 24.2961,14.0503 28.236,10.7414 32.6164,8.10232 26.3767,12.0925 21.265,17.6169 17.7702,24.147 9.72739,36.458 6.57259,51.5007 6.40446,66.4408 5.38221,64.3089 4.96752,61.9364 5.20598,59.5841 Z M 6.23182,94.3923 C 7.5783,87.6459 10.7119,82.1965 13.3944,76.0338 L 13.3361,75.8891 C 11.3122,73.5714 9.40766,71.1523 7.62975,68.641 7.50527,55.2816 9.6696,41.7119 15.5774,29.9601 c -0.4578,1.7393 -0.7499,3.518 -0.8724,5.3123 -0.4099,0.3263 -0.7546,0.727 -1.0159,1.1811 -3.6756,12.4314 -4.65641,26.9626 -0.1463,39.2882 0.137,0.3747 0.3048,0.7274 0.4539,1.0936 0.1165,0.2871 0.2316,0.575 0.3555,0.8569 -0.283,0.5657 -0.558,1.1375 -0.8252,1.7155 C 6.942,93.6183 5.06578,111.307 12.5007,125.288 5.71329,117.217 4.35181,103.809 6.23145,94.3927 Z M 23.898,131.659 c -2.2408,-2.613 -4.0912,-5.538 -5.4934,-8.682 -5.3167,-11.857 -4.4989,-26.3552 -0.0965,-38.5643 1.0596,1.3953 2.2256,2.7066 3.4875,3.922 -5.5976,14.1723 -2.7534,30.2873 7.3574,41.6863 0.4367,0.488 0.9,0.956 1.3635,1.425 -2.1924,0.307 -4.4113,0.378 -6.619,0.214 z m 10.2034,-0.603 c -1.1003,0.187 -2.5603,0.263 -2.9024,0.308 l -0.0525,0.006 c -0.3413,-0.355 -0.6938,-0.7 -1.0196,-1.066 -9.8877,-11.254 -12.7255,-27.06 -7.3702,-41.0506 0.8779,0.7837 1.8008,1.5138 2.7523,2.2079 -1.7659,6.1005 -1.8974,12.5577 -0.3813,18.7257 0.3247,3.66 1.2814,7.236 2.8275,10.57 0.8046,1.645 7.1853,10.288 7.4109,9.844 -0.102,0.2 -0.6226,0.347 -1.2651,0.456 z M 28.4027,94.1079 c -1.9318,2.8857 -3.0712,6.2281 -3.304,9.6931 -0.1999,-3.9348 0.2717,-7.8752 1.3945,-11.6519 0.8743,0.5953 1.7696,1.1603 2.6944,1.6825 -0.2904,-0.0356 -0.5808,0.0666 -0.7849,0.2763 z m 49.1222,-8.9124 c 2.9981,-2.7934 5.4496,-6.1207 7.2291,-9.8119 1.2264,-2.6285 1.5613,-6.0932 3.0027,-8.5555 0.3051,-0.4803 0.6742,-0.9168 1.0973,-1.2974 -0.0689,0.4153 -0.129,0.833 -0.216,1.2435 -1.1176,4.4779 -2.8141,8.791 -5.0466,12.8304 -4.0819,5.4549 -9.2975,9.9604 -15.2877,13.2064 3.2858,-2.2701 6.3709,-4.8179 9.2212,-7.6154 z M 91.3722,59.385 c -0.2538,2.9273 -0.8433,5.8156 -1.7567,8.6082 0.1987,-0.8047 0.3641,-1.6159 0.4897,-2.4333 0.0893,-0.5815 0.149,-1.1737 0.2129,-1.7643 0.0964,-0.1831 0.1762,-0.3745 0.2386,-0.5718 0.3496,-0.9406 0.3559,-1.9744 0.0178,-2.9192 C 90.6408,55.1294 90.3157,49.9566 89.6021,44.8305 88.3009,33.9512 85.2445,22.7597 78.5187,13.9116 74.5691,8.68406 69.249,4.65244 63.1482,2.26369 84.86,8.04818 93.1721,38.4237 91.3722,59.385 Z"
                       id="Stroke-3"
                       fill="#000000" />
                  </g>
                </g>
              </g>
            </g>
          </g>
        </g>
      </g>
    </g>
  </g>
</svg>
