<?xml version="1.0" encoding="UTF-8" standalone="no"?>
<svg
   xmlns:dc="http://purl.org/dc/elements/1.1/"
   xmlns:cc="http://creativecommons.org/ns#"
   xmlns:rdf="http://www.w3.org/1999/02/22-rdf-syntax-ns#"
   xmlns:svg="http://www.w3.org/2000/svg"
   xmlns="http://www.w3.org/2000/svg"
   xmlns:xlink="http://www.w3.org/1999/xlink"
   xmlns:sodipodi="http://sodipodi.sourceforge.net/DTD/sodipodi-0.dtd"
   xmlns:inkscape="http://www.inkscape.org/namespaces/inkscape"
   sodipodi:docname="dude.svg"
   inkscape:version="1.0 (4035a4fb49, 2020-05-01)"
   id="svg1954"
   version="1.1"
   viewBox="0 0 40 40"
   height="40mm"
   width="40mm">
  <defs
     id="defs1948">
    <path
       d="M0.2259 82.0714C0.0183 59.9809 5.4111 42.662 20.745 25.58 33.316 11.5754 48.5812 1.9032 77.1314 0.8771 104.133-0.0929 119.231 11.5044 134.508 23.9523 151.346 37.6723 158.416 54.9123 158.207 80.7049 158.01 104.909 147.691 128.048 135.131 138.705 121.173 150.549 100.64 156.698 77.2633 157.139 55.508 157.549 37.6852 151.678 24.7444 136.834 11.1693 121.262 0.4472 105.626 0.2259 82.0714Z"
       id="path-1" />
    <path
       d="M0.1944 83.0491C-0.0375 60.9591 7.3644 45.1844 18.4817 29.7436 29.0135 15.1161 43.9768 3.4328 78.1362 1.1169 105.372-0.73 122.059 5.3606 135.631 19.6477 148.893 33.6071 158.257 58.3329 157.767 84.1218 157.236 112.062 146.398 122.317 134.345 134.953 119.685 150.117 99.6196 158.865 78.5313 159.287 56.776 159.697 40.3864 151.189 24.9484 138.413 9.0335 125.242 0.5019 112.35 0.1944 83.0491Z"
       id="path-1-8" />
  </defs>
  <sodipodi:namedview
     inkscape:window-maximized="0"
     inkscape:window-y="78"
     inkscape:window-x="288"
     inkscape:window-height="1030"
     inkscape:window-width="1424"
     showgrid="false"
     inkscape:document-rotation="0"
     inkscape:current-layer="Page-1"
     inkscape:document-units="mm"
     inkscape:cy="74.229412"
     inkscape:cx="88.377487"
     inkscape:zoom="3.959798"
     inkscape:pageshadow="2"
     inkscape:pageopacity="0.0"
     borderopacity="1.0"
     bordercolor="#666666"
     pagecolor="#ffffff"
     id="base" />
  <metadata
     id="metadata1951">
    <rdf:RDF>
      <cc:Work
         rdf:about="">
        <dc:format>image/svg+xml</dc:format>
        <dc:type
           rdf:resource="http://purl.org/dc/dcmitype/StillImage" />
        <dc:title></dc:title>
      </cc:Work>
    </rdf:RDF>
  </metadata>
  <g
     id="layer1"
     inkscape:groupmode="layer"
     inkscape:label="Layer 1">
    <g
       transform="matrix(0.24839425,0,0,0.24839425,0.46001059,-0.09434954)"
       id="Page-1"
       stroke="none"
       stroke-width="1"
       fill="none"
       fill-rule="evenodd">
      <g
         transform="translate(-0.5379946,0.80699189)"
         id="13_Circle">
        <path
           d="M 0.1944,83.0491 C -0.0375,60.9591 7.3644,45.1844 18.4817,29.7436 29.0135,15.1161 43.9768,3.4328 78.1362,1.1169 105.372,-0.73 122.059,5.3606 135.631,19.6477 c 13.262,13.9594 22.626,38.6852 22.136,64.4741 -0.531,27.9402 -11.369,38.1952 -23.422,50.8312 -14.66,15.164 -34.7254,23.912 -55.8137,24.334 C 56.776,159.697 40.3864,151.189 24.9484,138.413 9.0335,125.242 0.5019,112.35 0.1944,83.0491 Z"
           id="Path"
           fill="#e3e3e3"
           fill-rule="nonzero" />
        <g
           id="Clipped">
          <mask
             id="mask-2"
             fill="#ffffff">
            <use
               y="0"
               x="0"
               width="100%"
               height="100%"
               xlink:href="#path-1-8"
               id="use2694" />
          </mask>
          <g
             id="g2697" />
          <g
             id="_13_Front-link"
             mask="url(#mask-2)">
            <g
               id="_13_Front"
               transform="translate(36.5447,16.3405)">
              <g
                 id="g2744">
                <g
                   id="Body"
                   transform="translate(9.4512,106.326)">
                  <path
                     d="m 52.8333,6.86216 c 0.2211,0.15004 0.4413,0.3035 0.6595,0.46429 C 53.2774,7.16436 53.0575,7.0096 52.8333,6.86216 Z"
                     id="path2699" />
                  <path
                     d="m 53.5301,13.153 c 0.8655,-0.4915 1.6627,-1.0948 2.3709,-1.7943 0.194,-0.2254 0.4451,-0.3945 0.7269,-0.4896 -0.0869,-0.1395 -0.1779,-0.2717 -0.2672,-0.4071 -0.4557,0.4696 -1.4361,1.4517 -2.8306,2.691 z"
                     id="path2701" />
                  <path
                     d="m 29.7122,13.0761 c 8.0035,1.2626 16.177,-0.7715 22.6551,-5.63812 0.2463,-0.18596 0.832,-0.0879 1.344,0.05848 C 53.6389,7.43928 53.5666,7.38186 53.493,7.32645 53.2748,7.16566 53.0545,7.0122 52.8334,6.86216 49.6301,4.76848 45.5312,4.16975 41.5705,3.97647 37.0267,6.15002 32.9875,9.24953 29.7122,13.0761 Z"
                     id="path2703"
                     fill="#ffffff"
                     fill-rule="nonzero" />
                  <path
                     d="M 56.3607,10.462 C 56.185,10.195 56.0199,9.9097 55.8349,9.66054 55.392,9.06996 54.8928,8.52376 54.3444,8.02962 47.0467,13.1348 38.0231,15.1395 29.2502,13.6046 c -1.0397,1.2253 -1.8298,2.2904 -2.3772,3.0763 7.4314,1.9087 15.2767,1.4125 22.4085,-1.4172 1.4648,-0.6013 2.8846,-1.3068 4.2486,-2.1111 1.3945,-1.2389 2.3749,-2.221 2.8306,-2.6906 z"
                     id="path2705"
                     fill="#ffffff"
                     fill-rule="nonzero" />
                  <path
                     d="m 19.7021,10.1433 c -1.0264,0.9361 -1.9835,1.9455 -2.8638,3.0202 3.2077,1.5322 6.5723,2.7115 10.0347,3.5174 0.5474,-0.7859 1.3371,-1.851 2.3772,-3.0763 -3.3658,-0.5669 -6.6009,-1.7397 -9.5481,-3.4613 z"
                     id="path2707"
                     fill="#e3e3e3"
                     fill-rule="nonzero" />
                  <path
                     d="M 20.5763,9.38221 C 23.3238,11.25 26.4385,12.5094 29.7121,13.0761 32.9874,9.24953 37.0266,6.15002 41.5704,3.97647 40.2249,3.91091 38.8955,3.8887 37.6245,3.87133 31.4372,3.38664 25.3092,5.36754 20.5763,9.38221 Z"
                     id="path2709"
                     fill="#e3e3e3"
                     fill-rule="nonzero" />
                  <path
                     d="M 71.0021,62.0735 C 69.928,52.6609 68.7215,43.248 67.0956,33.9134 65.7347,26.1008 64.1317,18.1424 59.5048,11.5062 53.7326,3.22723 43.3986,1.28418 33.9566,1.15553 29.0955,0.958655 24.271,2.07514 19.9906,4.3876 11.1906,9.0259 7.55045,17.5514 5.3684,26.7851 2.43546,39.1966 -0.42046,52.6813 0.296768,65.49 0.497606,69.073 2.9229,70.7447 6.48577,71.6426 14.156,73.5756 22.874,70.2535 30.6385,69.5006 41.763,68.4185 52.9753,68.6268 64.052,70.1213 c 2.4815,0.3225 6.1714,0.378 7.2357,-2.4392 0.5615,-1.4849 -0.1102,-4.0749 -0.2856,-5.6086 z M 37.6246,3.87133 c 1.2709,0.01737 2.6003,0.03958 3.9459,0.10514 3.9607,0.19328 8.0596,0.79154 11.2629,2.88569 0.2247,0.14689 0.4446,0.30165 0.6596,0.46429 0.0736,0.05541 0.1459,0.11283 0.2183,0.17001 C 53.1993,7.35008 52.6136,7.25202 52.3673,7.43798 45.8892,12.3046 37.7157,14.3387 29.7122,13.0761 26.4387,12.5094 23.3239,11.25 20.5764,9.38221 25.3093,5.36754 31.4373,3.38664 37.6246,3.87133 Z M 39.4399,50.1689 C 35.8966,52 32.2806,53.6894 28.6644,55.37 c -0.5876,0.273 -2.1879,-0.5546 -2.2168,-0.5411 4.3774,-2.0347 8.7933,-4.0504 13.0204,-6.3891 0.512,-0.2836 2.7172,-1.1414 2.9609,-1.8257 1.2162,-3.4112 -11.9702,-8.2167 -14.362,-9.1537 0.0257,0.0101 -0.372,-0.1514 -0.3097,-0.2276 2.6901,-3.1773 5.551,-6.2058 8.57,-9.0724 0.386,-0.378 2.3436,0.4167 2.2168,0.541 -1.8642,1.8269 -3.704,3.6817 -5.4861,5.5889 -0.2104,0.2252 -3.1834,3.2568 -3.2095,3.1779 0.0766,0.2305 1.4469,0.5435 1.6422,0.6709 3.6474,2.3768 8.2209,3.1703 11.5484,6.2062 1.7528,1.5992 1.9702,1.9824 0.7981,3.3848 -0.8964,1.0735 -3.1969,1.8178 -4.3972,2.4388 z M 55.901,11.3587 c -0.7082,0.6995 -1.5054,1.3028 -2.3709,1.7943 -1.364,0.8043 -2.7838,1.5098 -4.2486,2.111 -7.1318,2.8298 -14.977,3.326 -22.4085,1.4174 -3.4624,-0.8059 -6.827,-1.9853 -10.0347,-3.5174 0.8803,-1.0747 1.8374,-2.0841 2.8638,-3.0203 2.9472,1.7217 6.1822,2.8946 9.5481,3.4615 8.7729,1.5347 17.7965,-0.4702 25.0942,-5.57558 0.5484,0.49395 1.0475,1.03996 1.4905,1.63033 0.185,0.24916 0.3501,0.53445 0.5258,0.80145 0.0893,0.1358 0.1803,0.2676 0.2672,0.4071 -0.2819,0.0952 -0.5329,0.2645 -0.7269,0.4902 z"
                     id="Shape"
                     fill="#000000"
                     fill-rule="nonzero" />
                  <path
                     d="m 43.0384,44.3457 c -3.3275,-3.0362 -7.901,-3.8294 -11.5484,-6.2061 -0.1952,-0.1272 -1.5655,-0.4404 -1.6422,-0.6709 0.0261,0.0784 2.9991,-2.9535 3.2095,-3.178 1.7821,-1.9071 3.6219,-3.7619 5.4861,-5.5888 0.1268,-0.1243 -1.8312,-0.9194 -2.2168,-0.541 -3.019,2.8665 -5.8799,5.8951 -8.57,9.0723 -0.0623,0.0762 0.3354,0.2377 0.3097,0.2277 2.3918,0.937 15.5782,5.7424 14.362,9.1537 -0.2439,0.6843 -2.4489,1.5422 -2.9609,1.8256 -4.2271,2.3392 -8.643,4.3544 -13.0203,6.3892 0.0288,-0.0135 1.6291,0.8141 2.2167,0.541 3.6161,-1.6809 7.2322,-3.3699 10.7755,-5.2011 1.2006,-0.6204 3.5008,-1.3657 4.3971,-2.4383 1.1727,-1.4029 0.9553,-1.7864 -0.798,-3.3853 z"
                     id="path2712"
                     fill="#ffffff"
                     fill-rule="nonzero" />
                </g>
                <g
                   id="Head">
                  <path
                     d="m 78.9511,22.801 c 1.6027,0.4332 3.0906,1.2132 4.3585,2.285 -1.0604,-1.3485 -2.6463,-2.1799 -4.3585,-2.285 z"
                     id="path2715" />
                  <path
                     d="m 63.7483,7.22166 c 0.5167,0.2164 1.0202,0.46315 1.5078,0.73897 C 64.8008,7.62764 64.2904,7.37749 63.7483,7.22166 Z"
                     id="path2717" />
                  <path
                     d="m 38.9612,106.923 c -5.6224,-0.616 -11.0372,-2.475 -15.852,-5.443 4.948,4.226 10.051,5.13 15.852,5.443 z"
                     id="path2719" />
                  <path
                     d="m 72.6402,28.5899 c -1.3687,-0.1707 -3.0244,1.0975 -4.702,0.7883 -1.4685,-0.3211 -2.8542,-0.9439 -4.0692,-1.8289 -1.6872,-1.1814 -2.9322,-2.8918 -3.538,-4.8604 -0.6497,-1.7509 -0.7614,-4.2962 -2.5024,-3.5127 -1.843,0.8295 -1.4899,4.8453 -4.3892,5.0529 -1.2874,-0.1625 -2.5073,-0.6685 -3.5317,-1.4649 -2.6448,-1.7824 -4.7418,-8.0987 -8.3255,-7.8115 -3.7298,0.2988 -1.1257,2.9696 -0.1751,4.5591 0.3368,0.5873 0.6169,1.2053 0.8363,1.8458 0.4922,0.7296 0.9437,1.4466 1.3453,2.1137 0,0 -0.3568,0.1106 -0.7915,0.2038 0.2633,2.3819 -0.9043,2.9424 -3.4624,2.3717 -2.2626,-0.5048 -4.1961,-1.8179 -6.2953,-2.7095 -2.0817,-0.8843 -6.3003,-1.0176 -6.9428,0.2657 1.3569,0.4304 2.6279,1.0952 3.7555,1.9642 0.0627,0.049 -1.7798,0.7594 -2.2475,0.3942 -0.1387,-0.1084 -0.29,-0.1914 -0.4325,-0.2925 0.1121,0.0964 0.2299,0.1945 0.3602,0.2961 2.0859,1.6278 7.1238,3.6801 3.8654,6.4505 -3.5986,3.0598 -9.208,-0.8543 -12.5047,1.1814 -1.1863,0.9053 -1.9615,2.2473 -2.1529,3.7272 10.0957,3.3515 19.9895,9.8949 25.0577,19.1656 8.7332,-8.5839 20.9972,-18.341 33.6047,-18.2726 0.0642,0.0034 0.1276,0.0146 0.189,0.0334 -0.0428,-2.6875 0.9764,-9.1713 -2.9514,-9.6606 z"
                     id="path2721"
                     fill="#ffffff"
                     fill-rule="nonzero" />
                  <path
                     d="M 42.7959,64.1581 C 34.8632,57.76 26.4756,51.9475 17.6994,46.7667 6.79305,86.7806 39.149,103.844 45.9175,106.93 c 10.1639,-0.635 19.4977,-5.825 25.4001,-14.1237 1.0264,-2.1798 1.8018,-4.4691 2.3113,-6.824 -0.0263,-0.0694 -0.0368,-0.1438 -0.0305,-0.2177 0.5522,-4.585 1.1043,-9.1701 1.6563,-13.7551 0.1089,-2.3804 0.1734,-4.6324 0.2638,-6.6105 0.2792,-6.1109 0.3321,-12.2521 0.1749,-18.3816 C 60.22,50.4796 42.7959,64.1581 42.7959,64.1581 Z m -9.1093,24.1683 c -1.1886,0 -2.1522,-1.7845 -2.1522,-3.9855 0,-2.2011 0.9636,-3.9856 2.1522,-3.9856 1.1886,0 2.1522,1.7839 2.1522,3.9856 0,2.2016 -0.9639,3.9855 -2.1522,3.9855 z m 18.9712,-0.1595 c -1.1886,0 -2.1521,-1.7839 -2.1521,-3.9855 0,-2.2017 0.9635,-3.9856 2.1521,-3.9856 1.1886,0 2.1523,1.7839 2.1523,3.9856 0,2.2016 -0.9637,3.9855 -2.1523,3.9855 z"
                     id="path2723"
                     fill="#ffffff"
                     fill-rule="nonzero" />
                  <path
                     d="m 41.9347,58.3959 -0.025,-0.0167 0.011,0.0335 z"
                     id="path2725"
                     fill="#ffffff"
                     fill-rule="nonzero" />
                  <path
                     d="M 78.9511,22.801 C 78.7917,22.7838 78.6439,22.7549 78.4766,22.7457 76.2883,22.6336 74.0952,22.8419 71.9671,23.364 71.262,23.5374 67.6699,22.2771 67.7754,21.3674 68.2444,17.327 68.6868,10.4958 65.2562,7.96063 64.7686,7.68481 64.2651,7.43805 63.7483,7.22166 63.0937,7.02698 62.4116,6.9409 61.7291,6.96683 c -2.1797,0.10081 -4.3254,0.5783 -6.3421,1.4113 -0.3225,0.08016 -0.661,0.06829 -0.9771,-0.03426 0.4949,0.93437 0.9159,1.90613 1.2591,2.90623 1.0849,3.1761 0.9868,6.6371 -0.2763,9.7466 -0.2465,0.5978 -2.3105,0.3308 -2.3317,0.3824 1.2595,-3.1101 1.3576,-6.5695 0.2765,-9.746 C 52.7883,9.86835 51.7827,8.36148 51.141,6.65943 51.1305,6.63143 51.1721,6.59457 51.2393,6.55441 51.2357,6.54696 51.2249,6.53834 51.2216,6.53078 46.8283,-3.13307 30.0005,3.55235 32.9386,13.793 c 3.8998,0.6307 7.0609,4.2399 9.3039,7.5643 -0.2195,-0.6404 -0.4995,-1.2585 -0.8363,-1.8458 -0.9507,-1.5894 -3.5547,-4.2602 0.1751,-4.559 3.5836,-0.2872 5.6806,6.029 8.3254,7.8114 1.0244,0.7965 2.2444,1.3025 3.5318,1.465 2.8993,-0.2076 2.5465,-4.2234 4.3891,-5.0529 1.7411,-0.7835 1.8525,1.7617 2.5025,3.5127 0.6058,1.9686 1.8507,3.6789 3.5379,4.8604 1.2151,0.8849 2.6008,1.5077 4.0692,1.8289 1.6776,0.3092 3.3338,-0.9591 4.702,-0.7884 3.9278,0.49 2.9086,6.9737 2.9517,9.6613 0.5553,0.1516 1.6744,0.8152 1.7013,1.2387 0.5194,8.6474 0.5994,17.3156 0.2394,25.9711 -0.2112,5.3104 -0.2081,12.5346 -1.3801,19.2425 3.2275,-7.0807 5.2752,-14.6416 6.0621,-22.3833 0.6219,-5.6643 0.9353,-11.3581 0.939,-17.0564 0.0131,-4.1611 0.8612,-6.9545 1.5122,-11.1279 0.5059,-3.2446 0.3643,-6.787 -1.3546,-9.0495 -1.2681,-1.0719 -2.7562,-1.8519 -4.3591,-2.2851 z"
                     id="path2727"
                     fill="#e3e3e3"
                     fill-rule="nonzero" />
                  <path
                     d="m 18.8926,33.5965 c 3.2961,-2.0353 8.9061,1.8785 12.5048,-1.1814 3.2587,-2.7706 -1.7796,-4.8229 -3.8655,-6.4504 -0.1299,-0.1016 -0.2481,-0.1998 -0.3602,-0.2962 -3.1045,-2.1504 -7.0206,-2.7669 -10.6356,-1.6743 0.027,0.2954 0.0337,0.5741 0.0804,0.8836 l -0.1282,0.0806 C 8.05065,28.9298 5.59558,38.9153 4.76707,47.4294 4.15971,53.6709 3.42736,62.1024 5.31488,68.2303 5.94669,70.2817 7.63787,71.9386 9.01491,73.6915 9.0891,68.3021 9.24323,62.9142 9.47731,57.5277 9.77266,50.8601 9.16365,42.264 11.8822,36.0137 c 0.0603,-0.0394 0.1373,-0.0428 0.2008,-0.0089 1.5459,0.3629 3.1039,0.8034 4.6571,1.3189 0.1913,-1.4798 0.9663,-2.8218 2.1525,-3.7272 z"
                     id="path2729"
                     fill="#e3e3e3"
                     fill-rule="nonzero" />
                  <path
                     d="m 33.039,23.337 c 2.0993,0.8916 4.0327,2.2047 6.2954,2.7096 2.558,0.5707 3.7256,0.0101 3.4623,-2.3717 -0.612,0.1311 -1.3823,0.2265 -1.568,-0.0812 -1.6408,-2.7262 -4.7989,-7.2336 -8.1753,-8.8355 -0.2103,0.0215 -0.4229,0.0014 -0.6255,-0.0591 -7.815,-2.0213 -16.3799,-0.1255 -15.9474,8.6877 3.1673,-0.7845 6.4864,-0.7101 9.6153,0.2157 0.6429,-1.283 4.8615,-1.1498 6.9432,-0.2655 z"
                     id="path2731"
                     fill="#e3e3e3"
                     fill-rule="nonzero" />
                  <path
                     d="m 73.6289,85.9823 c 0.9482,-4.6015 1.4924,-9.277 1.6263,-13.9733 -0.5521,4.5851 -1.1042,9.1701 -1.6563,13.7551 -0.0065,0.0741 0.0037,0.1486 0.03,0.2182 z"
                     id="path2733"
                     fill="#e3e3e3"
                     fill-rule="nonzero" />
                  <path
                     d="m 17.6994,46.7667 c 8.7762,5.1808 17.1638,10.9933 25.0965,17.3914 0,0 17.4241,-13.6785 32.8975,-17.1412 -0.063,-2.4509 -0.1619,-4.8985 -0.2965,-7.3429 -12.3042,0.8484 -24.2019,10.6783 -32.5396,19.0217 -0.1474,0.1476 -0.5316,-0.034 -0.9226,-0.2998 l -0.014,0.0168 -0.011,-0.0335 C 41.522,58.1298 41.1796,57.8163 40.8971,57.4521 36.5095,47.6214 27.1486,41.6987 17.234,38.3931 c -0.1654,-0.0553 -0.3929,-0.1408 -0.6408,-0.234 -0.9949,-0.3743 -2.4559,-0.9223 -2.9108,-0.6196 -0.9104,0.6057 -1.017,4.992 -1.1444,6.0239 -1.1017,10.3466 -1.6262,20.7466 -1.5713,31.1515 -0.0069,0.6067 -0.0143,1.2144 -0.0208,1.8194 -0.0872,-0.057 -0.1818,-0.1017 -0.2812,-0.1328 1.7549,3.8095 1.9954,8.3237 3.6339,12.3396 1.7719,4.8625 4.7453,9.1976 8.6434,12.6019 0.0556,0.048 0.1116,0.089 0.1672,0.137 4.8148,2.968 10.2296,4.827 15.852,5.443 0.9993,0.055 2.0171,0.093 3.0608,0.127 1.3395,0.025 2.6315,-0.026 3.8955,-0.12 C 39.149,103.844 6.79305,86.7806 17.6994,46.7667 Z"
                     id="path2735"
                     fill="#e3e3e3"
                     fill-rule="nonzero" />
                  <path
                     d="M 83.7511,23.2168 C 80.2591,21.2919 76.2907,20.4025 72.3112,20.6531 72.6351,13.8837 70.8359,8.16383 63.6332,5.72388 60.3935,4.67704 56.9165,4.61168 53.6398,5.53604 47.2206,-1.06267 30.2557,-3.21034 28.3287,7.2903 c -0.2417,1.31726 0.7121,3.7038 0.3097,4.7651 -0.029,0.0757 -0.0542,0.1529 -0.0755,0.2312 -0.2139,-0.0457 -0.435,-0.0457 -0.6489,0 -1.8341,0.2788 -4.4421,-0.8284 -6.3813,-0.7476 -5.2262,0.2182 -8.844,3.2395 -9.3023,8.5313 -0.2,2.3104 0.3091,2.0299 -1.232,3.5259 -2.42025,2.3494 -4.80267,3.7577 -6.52137,6.8912 -3.607874,6.5775 -4.318959,14.6108 -4.371649,21.9793 -0.0307165,4.2842 -0.539782,10.436 0.991669,14.556 0.73539,1.4298 1.67016,2.7479 2.77629,3.9148 2.86159,3.7032 2.98894,6.6834 4.36184,11.1761 2.89902,9.4834 7.53732,16.8051 16.20882,22.0254 6.6901,4.028 13.4783,4.758 21.1149,5.001 21.4258,0.406 35.3261,-15.387 39.4518,-35.1482 2.1635,-10.3628 1.5257,-20.5612 2.4194,-30.9631 0.6398,-7.4504 4.5313,-15.1271 -3.679,-19.8119 z m -8.2326,42.1817 c -0.0904,1.9782 -0.1549,4.2301 -0.2638,6.6105 -0.1337,4.6963 -0.6777,9.3718 -1.6258,13.9733 -0.5095,2.355 -1.2851,4.6446 -2.3117,6.8245 -5.9024,8.2992 -15.2362,13.4892 -25.4001,14.1242 -1.2641,0.094 -2.5559,0.144 -3.8954,0.119 -1.0438,-0.033 -2.0616,-0.072 -3.0609,-0.126 -5.8007,-0.314 -10.9043,-1.218 -15.8519,-5.444 -0.0557,-0.047 -0.1117,-0.088 -0.1673,-0.137 -3.8982,-3.4036 -6.8717,-7.7385 -8.6437,-12.6008 -1.6385,-4.016 -1.879,-8.5297 -3.6339,-12.3396 0.0994,0.0311 0.194,0.0758 0.2812,0.1327 0.0065,-0.6055 0.0139,-1.2133 0.0208,-1.8193 -0.055,-10.405 0.4696,-20.8049 1.5713,-31.1515 0.1274,-1.032 0.234,-5.4183 1.1444,-6.024 0.4549,-0.3027 1.9159,0.2454 2.9108,0.6197 0.2481,0.0932 0.4748,0.1787 0.6408,0.234 9.9149,3.3056 19.2755,9.2283 23.6635,19.0589 0.2825,0.3643 0.6249,0.6778 1.0125,0.9272 l 0.0251,0.0167 c 0.3898,0.2658 0.7751,0.4474 0.9225,0.2998 8.3381,-8.3445 20.2358,-18.1748 32.54,-19.0228 0.1376,2.4439 0.2364,4.8916 0.2965,7.3429 0.1572,6.1296 0.1043,12.2707 -0.1749,18.3816 z m 9.1457,-31.2629 c -0.6506,4.1734 -1.4987,6.9668 -1.5122,11.1279 -0.0035,5.6982 -0.3167,11.3921 -0.9384,17.0564 -0.7868,7.7415 -2.8343,15.3023 -6.0615,22.3829 1.172,-6.7083 1.1689,-13.9321 1.3801,-19.2425 0.36,-8.6555 0.28,-17.3237 -0.2395,-25.9711 -0.0264,-0.4238 -1.1459,-1.0868 -1.7012,-1.2387 -0.0614,-0.0188 -0.1249,-0.03 -0.189,-0.0334 C 62.7951,38.1487 50.5311,47.9058 41.7979,56.4897 36.7297,47.219 26.8359,40.6756 16.7397,37.3237 15.1865,36.8082 13.6285,36.3677 12.0827,36.0048 12.0191,35.9709 11.9421,35.9743 11.8818,36.0137 9.16365,42.2639 9.77313,50.8601 9.47731,57.5277 9.23835,62.912 9.08422,68.2999 9.01491,73.6915 7.63787,71.9386 5.94669,70.2815 5.31488,68.2303 3.42736,62.1024 4.15971,53.6709 4.76707,47.4294 5.59558,38.915 8.05065,28.9298 16.4883,24.9581 l 0.1282,-0.0805 c -0.0467,-0.3096 -0.0534,-0.5888 -0.0804,-0.8836 3.6152,-1.0927 7.5315,-0.4761 10.6361,1.6746 0.1425,0.1012 0.2938,0.1842 0.4325,0.2925 0.4677,0.3652 2.3102,-0.3452 2.2475,-0.3942 -1.1276,-0.8689 -2.3986,-1.5337 -3.7555,-1.9642 -3.1292,-0.9259 -6.4487,-1.0003 -9.6162,-0.2157 -0.4325,-8.8132 8.1324,-10.7089 15.9474,-8.6877 0.2026,0.0605 0.4152,0.0806 0.6255,0.0591 3.376,1.602 6.5341,6.1094 8.1753,8.8356 0.1852,0.3071 0.956,0.2126 1.568,0.0811 0.4347,-0.0932 0.7915,-0.2038 0.7915,-0.2038 C 43.1866,22.8042 42.7351,22.0872 42.243,21.3576 40,18.0331 36.8389,14.4239 32.9391,13.7932 30.0009,3.55235 46.8288,-3.13331 51.2221,6.53078 c 0.0033,0.00721 0.014,0.01583 0.0177,0.02363 -0.0672,0.04016 -0.1088,0.07702 -0.0983,0.10502 0.6416,1.70193 1.6472,3.2088 2.1965,4.97367 1.0812,3.1767 0.9831,6.6363 -0.2765,9.7466 0.0212,-0.0514 2.0852,0.2153 2.3316,-0.3824 1.2631,-3.1095 1.3613,-6.5705 0.2764,-9.7466 -0.3432,-1.0001 -0.7642,-1.97187 -1.2592,-2.90624 0.3161,0.10255 0.6546,0.11442 0.9772,0.03427 2.0167,-0.83301 4.1624,-1.3105 6.3421,-1.41131 0.6825,-0.02593 1.3646,0.06015 2.0192,0.25483 0.5421,0.15583 1.0525,0.40598 1.5077,0.73897 3.4307,2.53518 2.9883,9.36668 2.5192,13.40678 -0.1055,0.9097 3.4867,2.17 4.1918,1.9965 2.1281,-0.522 4.3211,-0.7303 6.5095,-0.6182 0.167,0.0092 0.3151,0.0381 0.4744,0.0553 1.7123,0.1051 3.2981,0.9365 4.3586,2.285 1.7185,2.262 1.8601,5.8044 1.3542,9.049 z"
                     id="path2737"
                     fill="#000000"
                     fill-rule="nonzero" />
                  <path
                     d="m 33.6866,80.3553 c -1.1886,0 -2.1522,1.7839 -2.1522,3.9856 0,2.2016 0.9636,3.9855 2.1522,3.9855 1.1886,0 2.1522,-1.7845 2.1522,-3.9855 0,-2.2011 -0.9639,-3.9856 -2.1522,-3.9856 z"
                     id="path2739"
                     fill="#000000"
                     fill-rule="nonzero" />
                  <path
                     d="m 52.6578,80.1958 c -1.1886,0 -2.1521,1.7839 -2.1521,3.9856 0,2.2016 0.9635,3.9855 2.1521,3.9855 1.1886,0 2.1523,-1.7839 2.1523,-3.9855 0,-2.2017 -0.9637,-3.9856 -2.1523,-3.9856 z"
                     id="path2741"
                     fill="#000000"
                     fill-rule="nonzero" />
                </g>
              </g>
            </g>
          </g>
        </g>
      </g>
    </g>
  </g>
</svg>
