<?xml version="1.0" encoding="UTF-8" standalone="no"?>
<svg
   xmlns:dc="http://purl.org/dc/elements/1.1/"
   xmlns:cc="http://creativecommons.org/ns#"
   xmlns:rdf="http://www.w3.org/1999/02/22-rdf-syntax-ns#"
   xmlns:svg="http://www.w3.org/2000/svg"
   xmlns="http://www.w3.org/2000/svg"
   xmlns:xlink="http://www.w3.org/1999/xlink"
   xmlns:sodipodi="http://sodipodi.sourceforge.net/DTD/sodipodi-0.dtd"
   xmlns:inkscape="http://www.inkscape.org/namespaces/inkscape"
   sodipodi:docname="frank.svg"
   inkscape:version="1.0 (4035a4fb49, 2020-05-01)"
   id="svg1954"
   version="1.1"
   viewBox="0 0 40 40"
   height="40mm"
   width="40mm">
  <defs
     id="defs1948">
    <path
       d="M0.2259 82.0714C0.0183 59.9809 5.4111 42.662 20.745 25.58 33.316 11.5754 48.5812 1.9032 77.1314 0.8771 104.133-0.0929 119.231 11.5044 134.508 23.9523 151.346 37.6723 158.416 54.9123 158.207 80.7049 158.01 104.909 147.691 128.048 135.131 138.705 121.173 150.549 100.64 156.698 77.2633 157.139 55.508 157.549 37.6852 151.678 24.7444 136.834 11.1693 121.262 0.4472 105.626 0.2259 82.0714Z"
       id="path-1" />
  </defs>
  <sodipodi:namedview
     inkscape:window-maximized="0"
     inkscape:window-y="78"
     inkscape:window-x="288"
     inkscape:window-height="1030"
     inkscape:window-width="1424"
     showgrid="false"
     inkscape:document-rotation="0"
     inkscape:current-layer="layer1"
     inkscape:document-units="mm"
     inkscape:cy="80.08274"
     inkscape:cx="64.520743"
     inkscape:zoom="2.8"
     inkscape:pageshadow="2"
     inkscape:pageopacity="0.0"
     borderopacity="1.0"
     bordercolor="#666666"
     pagecolor="#ffffff"
     id="base" />
  <metadata
     id="metadata1951">
    <rdf:RDF>
      <cc:Work
         rdf:about="">
        <dc:format>image/svg+xml</dc:format>
        <dc:type
           rdf:resource="http://purl.org/dc/dcmitype/StillImage" />
        <dc:title></dc:title>
      </cc:Work>
    </rdf:RDF>
  </metadata>
  <g
     id="layer1"
     inkscape:groupmode="layer"
     inkscape:label="Layer 1">
    <g
       transform="matrix(0.24963092,0,0,0.24963092,0.39976003,0.18510127)"
       id="Page-1"
       stroke="none"
       stroke-width="1"
       fill="none"
       fill-rule="evenodd">
      <g
         id="10_Circle">
        <path
           d="M 0.2259,82.0714 C 0.0183,59.9809 5.4111,42.662 20.745,25.58 33.316,11.5754 48.5812,1.9032 77.1314,0.8771 c 27.0016,-0.97 42.0996,10.6273 57.3766,23.0752 16.838,13.72 23.908,30.96 23.699,56.7526 -0.197,24.2041 -10.516,47.3431 -23.076,58.0001 -13.958,11.844 -34.491,17.993 -57.8677,18.434 C 55.508,157.549 37.6852,151.678 24.7444,136.834 11.1693,121.262 0.4472,105.626 0.2259,82.0714 Z"
           id="Path"
           fill="#e3e3e3"
           fill-rule="nonzero" />
        <g
           id="Clipped">
          <mask
             id="mask-2"
             fill="#ffffff">
            <use
               y="0"
               x="0"
               width="100%"
               height="100%"
               xlink:href="#path-1"
               id="use2521" />
          </mask>
          <g
             id="g2524" />
          <g
             id="_10_Front-link"
             mask="url(#mask-2)">
            <g
               id="_10_Front"
               transform="translate(36.4057,15.9483)">
              <g
                 id="g2615">
                <g
                   id="Body"
                   fill-rule="nonzero"
                   transform="translate(5.875,109.275)">
                  <g
                     id="BG-3"
                     fill="#ffffff"
                     transform="translate(4.7,2.35)">
                    <path
                       d="M 17.7895,17.2496 C 22.904,13.1426 22.674,5.49007 23.9875,2.43284 24.023,2.16861 24.0753,1.90692 24.144,1.64935 24.1384,1.55535 24.1339,1.45594 24.1278,1.36429 24.1265,1.34479 24.1694,1.34773 24.2328,1.3623 24.2643,1.28394 24.3006,1.20765 24.3417,1.13388 24.1318,1.07172 23.9245,1.00462 23.7167,0.937768 23.5059,1.14034 23.2914,1.33727 23.0866,1.54877 20.8438,3.97607 18.8508,6.62289 17.1378,9.44923 15.2751,12.3974 13.61,15.466 12.1537,18.6348 c -0.2786,0.6 -0.5622,1.1985 -0.8267,1.8037 0.6438,-0.3689 1.3243,-0.6697 2.0305,-0.8977 1.688,-0.9575 3.7198,-1.7197 4.432,-2.2912 z"
                       id="path2526" />
                    <path
                       d="m 34.2547,13.9626 c 1.2657,-4.15571 3.1493,-8.09746 5.5874,-11.69297 0.02,-0.21143 0.091,-0.41486 0.207,-0.59279 -4.0224,0.87093 -8.1748,0.96021 -12.2309,0.26297 1.3419,0.40605 2.7233,0.66802 4.1207,0.78149 2.0861,3.35171 2.9073,7.338 2.3158,11.2413 z"
                       id="path2528" />
                    <path
                       d="m 49.9058,18.1308 c 1.1985,0.6989 2.2552,1.2347 3.1578,1.694 0.6374,0.1558 1.318,0.3485 1.9965,0.5839 C 52.1273,13.3861 48.4075,6.7188 43.9719,0.534625 c -0.1574,0.05875 -0.3172,0.11186 -0.4757,0.167555 -0.1031,0.35156 -0.1917,0.70614 -0.2658,1.06373 0.4561,4.77367 1.5054,13.34889 6.6754,16.36489 z"
                       id="path2530" />
                    <path
                       d="m 32.9181,29.6417 -0.0886,-8.6914 c -1.3679,-0.2213 -2.6818,-0.698 -3.8733,-1.4055 0.154,1.3617 0.2998,2.7052 0.432,4.0464 0.2078,0.015 0.4116,0.0658 0.6023,0.1499 0.4319,0.185 0.8202,0.4585 1.1397,0.803 0.86,0.5947 1.3511,1.592 1.298,2.6362 0.0806,0.7088 -0.1284,1.42 -0.5794,1.9726 -0.451,0.5525 -1.106,0.8997 -1.8165,0.9627 -0.0436,0 -0.0796,-0.0117 -0.1219,-0.0139 0.4557,8.9055 0.2742,17.8322 -0.5429,26.7118 2.6051,-0.0339 5.2565,-0.0266 7.9027,0.0352 -0.4033,-8.2111 -0.296,-18.0715 0.1585,-26.9851 -0.951,-0.5861 -1.5127,-1.6388 -1.4701,-2.7551 -0.0118,-0.9477 0.393,-1.8529 1.1074,-2.4758 0.1659,-0.3377 0.4208,-0.6238 0.7374,-0.8272 0.0672,-0.9219 0.1371,-1.8288 0.2115,-2.7085 -0.7653,0.1259 -1.7414,0.2652 -2.8318,0.3791 0.028,2.7508 0.0561,5.5016 0.0842,8.2523 0.0024,0.3187 -2.3454,0.2853 -2.3492,-0.0867 z"
                       id="path2532" />
                    <path
                       d="m 31.0435,26.294 c -0.0023,-0.1785 -0.0163,-0.3566 -0.0419,-0.5333 -0.1025,-0.3416 -0.3251,-0.6346 -0.6268,-0.8247 -0.2734,-0.1698 -0.6285,-0.1233 -0.849,0.111 0.1128,1.2367 0.2136,2.4822 0.3004,3.7506 0.0596,-0.0215 0.1174,-0.0476 0.173,-0.0781 0.7201,-0.5918 1.1093,-1.4956 1.0443,-2.4255 z"
                       id="path2534" />
                    <path
                       d="m 28.7432,17.4891 c 0.5546,0.245 1.0965,0.5176 1.6239,0.8168 0.8749,0.5035 1.7171,1.0618 2.5215,1.6716 l 0.0656,0.0499 c 0.0224,-0.1771 0.0491,-0.354 0.0743,-0.531 -0.1327,-0.2453 -0.2473,-0.5 -0.3428,-0.7621 C 31.091,14.309 30.0221,10.2861 27.4894,6.19448 27.049,5.48302 26.587,4.78049 26.1137,4.08606 c 0.0015,0.04395 0.0047,0.08308 0.0062,0.12737 2.0498,3.97045 2.5375,11.53157 2.6233,13.27567 z"
                       id="path2536" />
                    <path
                       d="m 39.9549,17.3719 c -1.5658,0.4582 -3.0794,1.0789 -4.5161,1.8519 -0.0277,0.1763 -0.049,0.3525 -0.0741,0.5288 1.0482,-0.6853 2.1649,-1.2596 3.332,-1.7138 1.3948,-0.4489 3.102,-0.3825 4.4415,-0.8729 0.611,-0.2238 0.7383,-0.0556 0.7583,0.0037 -0.0064,-0.1108 0.0027,-0.2219 0.027,-0.3302 0.0822,-0.4714 -0.8981,-1.9842 -1.0897,-2.46 C 42.2325,12.9037 41.7302,11.3895 41.3304,9.84697 40.9128,8.27375 40.6685,6.65957 40.6019,5.03323 40.4558,5.28315 40.3165,5.53648 40.1752,5.78969 37.7351,10.8706 39.9549,17.3719 39.9549,17.3719 Z"
                       id="path2538" />
                  </g>
                  <g
                     id="Shadow-3"
                     fill="#e3e3e3"
                     transform="translate(3.525,3.525)">
                    <path
                       d="m 40.5711,27.1626 c 0.0172,-0.7233 0.0343,-1.4486 0.0515,-2.1759 0.0121,-0.5139 0.0241,-1.0286 0.036,-1.5442 l 0.006,-0.261 c -0.1854,-0.0805 -0.3967,-0.0765 -0.579,0.0109 -0.1171,0.0434 -0.228,0.1022 -0.3296,0.1748 -0.1096,0.0916 -0.2076,0.196 -0.2921,0.3112 -0.4346,0.5965 -0.6681,1.316 -0.6666,2.0541 0.0414,0.8878 0.362,2.6146 1.5765,1.819 0.0353,-0.0235 0.0563,-0.0606 0.0897,-0.0861 0.0383,-0.0293 0.0672,-0.0668 0.1028,-0.0986 z"
                       id="path2541" />
                    <path
                       d="m 31.5496,23.761 c 0.3017,0.1901 0.5243,0.4831 0.6267,0.8247 -0.1264,-0.9351 -0.5888,-1.9785 -1.6288,-1.2119 -0.6486,0.6098 -0.9987,1.4724 -0.9583,2.3618 0.0303,0.6597 0.2156,1.7559 0.7976,1.9727 0.2078,0.0566 0.4297,0.0258 0.6142,-0.0853 -0.0869,-1.2685 -0.188,-2.514 -0.3005,-3.7506 0.2205,-0.2345 0.5756,-0.2811 0.8491,-0.1114 z"
                       id="path2543" />
                    <path
                       d="m 33.6026,26.0057 c 0.0531,-1.0442 -0.438,-2.0416 -1.298,-2.6362 0.5919,0.6434 0.9159,1.4885 0.906,2.3628 0,1.3557 -0.8813,3.2184 -2.5014,2.5778 -0.6428,-0.2495 -1.1862,-0.7028 -1.5468,-1.2906 -0.0019,0.1809 -0.004,0.362 -0.0062,0.5431 -0.1282,10.1423 -0.7152,19.9195 -1.4669,28.1283 0.9423,-0.0225 1.8932,-0.0398 2.8526,-0.0521 0.8171,-8.8796 0.9986,-17.8062 0.543,-26.7117 0.0423,0.002 0.0782,0.0141 0.1218,0.0139 0.7105,-0.0631 1.3655,-0.4102 1.8165,-0.9628 0.4511,-0.5526 0.66,-1.2638 0.5794,-1.9725 z"
                       id="path2545" />
                    <path
                       d="M 25.1622,1.25725 C 23.8486,4.31484 24.0787,11.9674 18.9641,16.074 c -0.7118,0.5715 -2.7436,1.3337 -4.4319,2.2903 0.7609,-0.2409 1.5385,-0.4255 2.3265,-0.5522 9.1462,-1.5854 7.6845,-12.2104 8.3035,-16.55485 z"
                       id="path2547" />
                    <path
                       d="m 51.5214,18.1308 c 0.9141,0.1257 1.8211,0.2989 2.7172,0.519 C 53.336,18.1905 52.279,17.6547 51.0808,16.9558 45.9108,13.9398 44.8615,5.36458 44.4054,0.590908 43.3752,5.52591 44.9896,10.9524 47.1864,15.441 c 1.0158,1.4522 2.5827,2.4245 4.335,2.6898 z"
                       id="path2549" />
                    <path
                       d="m 34.0045,19.7647 -0.0023,-0.0045 0.0021,-0.0155 -0.0036,-0.345 c -1.317,-0.9317 -2.7461,-1.6941 -4.2535,-2.2691 -0.2083,-0.075 -0.4224,-0.1336 -0.6345,-0.1979 0.0464,2.0973 0.0699,4.1933 0.0705,6.2881 0.2711,-0.5075 0.8052,-0.8188 1.3804,-0.8043 -0.1322,-1.3411 -0.278,-2.6846 -0.4319,-4.0463 1.1913,0.7072 2.5051,1.1839 3.8728,1.405 z"
                       id="path2551" />
                    <path
                       d="m 36.3573,20.3009 c 1.0908,-0.1138 2.0668,-0.2532 2.8318,-0.379 -0.0745,0.8797 -0.1444,1.786 -0.2115,2.7085 0.4221,-0.2555 0.9453,-0.2787 1.3884,-0.0614 0.1055,0.0473 0.2086,0.1 0.3089,0.1579 0.0235,-1.0274 0.0466,-2.0568 0.0694,-3.0882 0.0139,-0.6312 0.0272,-1.2631 0.0399,-1.8956 -0.9606,0.371 -1.8926,0.8124 -2.7883,1.3205 -0.2999,0.1703 -0.6183,0.4081 -0.9457,0.6219 -0.2184,0.1453 -0.4516,0.2671 -0.6957,0.3634 l 6e-4,0.0616 c -0.032,0.0176 0.0019,0.0705 0,0.1151 -6e-4,0.0343 -0.0505,0.081 0.0022,0.0753 z"
                       id="path2553" />
                    <path
                       d="M 29.9182,16.3141 C 29.8324,14.5698 29.3447,7.00887 27.2949,3.03843 27.421,6.83192 27.1202,11.6435 25.5398,15.0767 c 1.513,0.1918 2.9888,0.6089 4.3784,1.2374 z"
                       id="path2555" />
                    <path
                       d="m 41.35,4.61505 c -2.5359,4.29679 -4.1752,9.06265 -4.8192,14.01025 1.496,-0.9398 3.1424,-1.6154 4.8673,-1.9975 0,0 -2.488,-6.93217 -0.0481,-12.01275 z"
                       id="path2557" />
                    <path
                       d="M 35.4297,12.7876 C 36.0282,8.78326 35.2112,4.69552 33.1195,1.22881 31.7346,1.17499 30.3555,1.01991 28.9932,0.764808 28.7133,0.69893 28.4444,0.592779 28.1949,0.449672 28.151,0.427583 28.0933,0.40608 28.0548,0.38399 l -0.0269,2.04943 c 3.0116,3.8555 5.3275,8.20688 6.8435,12.85838 0.2544,-0.818 0.4411,-1.6556 0.5583,-2.5042 z"
                       id="path2559" />
                    <path
                       d="m 40.5413,28.4251 c -0.2137,10e-5 -0.4255,-0.0401 -0.6243,-0.1183 -0.0304,-0.0117 -0.0505,-0.0341 -0.0803,-0.047 -0.4511,-0.1936 -0.8498,-0.4917 -1.1632,-0.8695 -0.0689,-0.0804 -0.1496,-0.151 -0.2099,-0.2376 -0.4053,-0.5936 -0.6323,-1.2908 -0.6542,-2.0092 l 0.0107,-0.0036 c -0.0021,-0.0117 -0.0118,-0.0227 -0.0118,-0.0341 0.0254,-0.5741 0.1723,-1.1362 0.4311,-1.6492 -0.7143,0.623 -1.1192,1.5281 -1.1073,2.4759 -0.0426,1.1162 0.5191,2.1689 1.4701,2.755 -0.4545,8.9132 -0.5618,18.774 -0.1586,26.9852 0.6062,0.014 1.2112,0.031 1.8151,0.051 -0.1591,-7.8917 0.0432,-17.2027 0.274,-26.9759 z"
                       id="path2561" />
                  </g>
                  <g
                     id="Stroke-3"
                     fill="#000000">
                    <path
                       d="M 72.9306,58.186 C 71.2869,37.7275 64.9132,17.8541 52.4257,1.06373 51.8133,0.24017 48.7832,0.92026 48.0474,1.31694 42.4255,4.13702 35.8169,4.2054 30.1379,1.50224 29.4054,1.32588 28.638,1.35989 27.924,1.60035 27.1372,1.50738 26.3405,1.64937 25.6343,2.00843 15.7187,9.70667 10.2554,24.387 6.98972,35.8926 5.21744,42.2676 3.91193,48.7632 3.08355,55.3279 1.05445,66.09 0.693485,74.4045 0.557302,74.3913 0.855518,74.4607 1.13517,74.5196 1.4268,74.5852 1.14386,80.2102 0.975955,85.8455 0.975015,91.4777 c 0,3.0715 -1.168303,10.9343 0.776675,13.5223 0.81129,0.768 1.93795,1.107 3.03808,0.913 0.04583,-10e-4 0.08907,0.002 0.13512,0 1.38651,-0.066 2.88028,-0.374 3.89866,-0.449 5.65995,-0.419 13.35185,-2 18.72185,0.19 0.5127,0.209 4.6605,0.22 4.5732,-0.64 -0.3061,-3.017 1.9418,-7.5084 2.7539,-10.3792 0.2094,-0.7402 0.4252,-1.4783 0.6356,-2.218 1.232,4.3672 1.8799,8.8782 1.927,13.4162 -0.0051,0.633 3.2514,0.081 3.5594,0.008 2.4648,-0.552 4.9741,-0.88 7.4977,-0.983 5.6952,-0.295 10.6236,1.392 16.107,1.945 1.6668,0.168 3.2037,-0.01 4.1095,-1.243 1.1337,-1.543 1.2623,-4.913 1.6437,-6.7464 0.9197,-4.4215 1.6082,-8.8921 2.106,-13.3803 0.3978,-3.5882 0.6658,-7.1879 0.8039,-10.7992 0.5214,-0.097 1.0395,-0.1923 1.5809,-0.3002 -0.1183,0.0083 -0.5619,-6.9753 -1.9126,-16.1479 z M 68.693,45.738 c -6.8046,2.4749 -13.9734,3.8008 -21.213,3.9233 l 0.0023,0.0045 c -1.0352,0.0683 -2.0738,0.0663 -3.1088,-0.006 -0.107,-1.2805 -0.1394,-2.5661 -0.097,-3.8504 0.0046,-2.3491 0.0447,-2.821 0.048,-2.9549 h 1.224 l 0.0054,0.029 c 9.2964,0.0633 21.6696,-3.6016 21.6696,-3.6016 0.8784,3.0063 1.3965,6.2568 1.4695,6.4564 z M 43.8912,26.094 c -0.4431,-0.2173 -0.9662,-0.1941 -1.3884,0.0614 -0.3165,0.2034 -0.5715,0.4894 -0.7374,0.8272 -0.2588,0.513 -0.4058,1.0751 -0.4311,1.6491 -6e-4,0.0117 0.0091,0.0228 0.0117,0.0342 l -0.0107,0.0035 c 0.022,0.7185 0.249,1.4156 0.6543,2.0093 0.0602,0.0866 0.141,0.1572 0.2098,0.2375 0.3135,0.3779 0.7122,0.6759 1.1633,0.8695 0.0297,0.0126 0.0498,0.0347 0.0802,0.047 0.1989,0.0783 0.4106,0.1184 0.6243,0.1184 l -0.0076,0.3236 c -0.2308,9.7731 -0.4331,19.0842 -0.274,26.9758 -0.6045,-0.0198 -1.2095,-0.0368 -1.8151,-0.0509 -2.6462,-0.0614 -5.2976,-0.0687 -7.9027,-0.0353 -0.9588,0.0125 -1.9096,0.0299 -2.8525,0.0521 0.752,-8.2088 1.3387,-17.986 1.4669,-28.1284 0.0023,-0.1809 0.0044,-0.3619 0.0062,-0.5431 0.3606,0.5878 0.9039,1.0412 1.5468,1.2907 1.6195,0.6406 2.5014,-1.222 2.5013,-2.5779 0.01,-0.8742 -0.3141,-1.7193 -0.9059,-2.3628 -0.3196,-0.3445 -0.7079,-0.618 -1.1398,-0.803 -0.1907,-0.0841 -0.3944,-0.1348 -0.6023,-0.1499 -0.5752,-0.0145 -1.1094,0.2967 -1.3804,0.8043 -0.0017,-2.0915 -0.0252,-4.1876 -0.0705,-6.2881 0.2122,0.0642 0.4263,0.1229 0.6345,0.1978 1.5076,0.575 2.9368,1.3374 4.2541,2.2692 l 0.0035,0.345 -0.0021,0.0155 0.0024,0.0044 v 0.011 l 0.0887,8.6911 c 0.0037,0.372 2.3516,0.4054 2.3483,0.0866 -0.0281,-2.7507 -0.0561,-5.5015 -0.0841,-8.2524 l -0.002,-0.1905 -6e-4,-0.0615 c 0.2441,-0.0963 0.4773,-0.2181 0.6957,-0.3634 0.3274,-0.2138 0.6463,-0.4516 0.9457,-0.622 0.8957,-0.5081 1.8277,-0.9494 2.7884,-1.3204 -0.013,0.6322 -0.0263,1.2641 -0.04,1.8956 -0.0225,1.0319 -0.0456,2.0612 -0.0694,3.0881 -0.1004,-0.058 -0.2037,-0.1108 -0.3095,-0.1583 z m 0.2984,0.6125 -0.006,0.261 c -0.0119,0.5159 -0.024,1.0306 -0.036,1.5442 -0.0172,0.7273 -0.0343,1.4526 -0.0515,2.1759 l -0.0048,0.2037 c -0.0353,0.0319 -0.0645,0.0694 -0.1028,0.0986 -0.0334,0.0255 -0.0542,0.0629 -0.0897,0.0861 -1.2145,0.7956 -1.5351,-0.9311 -1.5765,-1.819 -0.0014,-0.7379 0.232,-1.4572 0.6666,-2.0536 0.0845,-0.1152 0.1825,-0.2196 0.2921,-0.3112 0.1016,-0.0726 0.2125,-0.1314 0.3296,-0.1748 0.1823,-0.0874 0.3936,-0.0914 0.579,-0.0109 z m -6.1474,43.6408 c 1.5336,-0.3379 2.625,-1.6982 2.6224,-3.2687 0,-4.6234 -7.6675,-5.0467 -7.9169,-0.2719 0.0578,1.7072 1.2658,3.1579 2.9343,3.5239 v 1.1162 H 31.9626 C 31.1119,71.4441 30.4231,70.755 30.4207,69.9043 v -3.053 c 0.1908,-1.6194 0.3779,-3.3429 0.5582,-5.1572 0.2717,-0.241 0.6209,-0.3766 0.984,-0.382 h 9.4 c 0.8507,0.0026 1.5396,0.6915 1.5422,1.5422 v 7.05 c -0.0026,0.8506 -0.6915,1.5396 -1.5422,1.5422 h -3.3207 z m -1.0888,-0.987 c -1.2169,0.5813 -1.8256,-1.4043 -1.8714,-2.2821 0.0481,-0.9243 0.488,-2.4151 1.5745,-2.6331 1.0927,-0.2195 1.6685,1.4983 1.6743,2.3618 0.0397,1.0382 -0.4877,2.0161 -1.377,2.5534 z M 33.1142,29.2602 c -0.0404,-0.8894 0.3097,-1.752 0.9583,-2.3617 1.04,-0.7666 1.5024,0.2768 1.6288,1.2118 0.0257,0.1767 0.0397,0.3549 0.042,0.5334 0.0649,0.9298 -0.3242,1.8336 -1.0444,2.4254 -0.0555,0.0306 -0.1133,0.0567 -0.1729,0.0782 -0.1845,0.1111 -0.4064,0.1419 -0.6142,0.0853 -0.582,-0.2165 -0.7673,-1.3126 -0.7976,-1.9724 z M 47.931,4.11591 C 48.0056,3.75847 48.0942,3.4039 48.1967,3.05218 48.3555,2.99648 48.515,2.9429 48.6725,2.88462 53.108,9.06881 56.8278,15.7361 59.7605,22.7587 59.0819,22.5237 58.4014,22.3306 57.7639,22.1748 56.8678,21.9547 55.9609,21.7815 55.0468,21.6558 53.2945,21.3905 51.7276,20.4182 50.7117,18.966 48.5146,14.4774 46.9002,9.05032 47.9304,4.11591 Z m -2.6288,3.26767 c 0.0666,1.62635 0.3109,3.24052 0.7285,4.81372 0.3999,1.5426 0.9021,3.0568 1.5035,4.5325 0.1916,0.4757 1.1714,1.9885 1.0897,2.4599 -0.0244,0.1083 -0.0335,0.2194 -0.0271,0.3302 -0.0199,-0.0587 -0.1472,-0.2275 -0.7582,-0.0036 -1.3395,0.4903 -3.0471,0.4239 -4.4415,0.8729 -1.1671,0.4542 -2.2838,1.0285 -3.3321,1.7137 0.0252,-0.1762 0.0464,-0.3525 0.0742,-0.5287 0.7802,-4.7207 2.3833,-9.2676 4.7362,-13.4338 0.1408,-0.25356 0.2799,-0.5069 0.4263,-0.75682 z M 31.5798,3.90899 c 0.0385,0.02209 0.0962,0.04359 0.1401,0.06568 0.2577,0.12519 0.5246,0.23054 0.7983,0.31514 4.0561,0.69724 8.2085,0.60796 12.2309,-0.26297 -0.116,0.17793 -0.187,0.38136 -0.207,0.59279 -2.4381,3.59551 -4.3217,7.53727 -5.5874,11.69297 -0.1172,0.8486 -0.3039,1.6862 -0.5583,2.5042 C 36.8804,14.1653 34.5645,9.81392 31.5529,5.95843 Z M 30.8202,6.56343 C 30.8187,6.51913 30.8155,6.48001 30.814,6.43606 c 0.4733,0.69443 0.9353,1.39696 1.3757,2.10842 2.5327,4.09102 3.6016,8.11452 5.1963,12.53982 0.0955,0.2621 0.2101,0.5168 0.3429,0.7621 -0.0253,0.177 -0.0519,0.3539 -0.0744,0.531 L 37.589,22.3275 c -0.8045,-0.6098 -1.6467,-1.1681 -2.5216,-1.6716 -0.5273,-0.2992 -1.0693,-0.5718 -1.6238,-0.8168 -1.3897,-0.6285 -2.8655,-1.0456 -4.3784,-1.2374 1.58,-3.4332 1.8808,-8.2448 1.755,-12.03827 z M 16.8534,20.9839 c 1.4563,-3.1688 3.1213,-6.2374 4.9841,-9.1856 1.7129,-2.82635 3.7059,-5.47317 5.9488,-7.90047 0.2048,-0.21056 0.4192,-0.40785 0.63,-0.611 0.2079,0.0665 0.4151,0.13395 0.625,0.1961 -0.041,0.07378 -0.0774,0.15007 -0.1088,0.22842 -0.0635,-0.01457 -0.1058,-0.0175 -0.1051,0.002 0.0062,0.09165 0.0106,0.19106 0.0163,0.28506 -0.0688,0.25757 -0.1211,0.51926 -0.1565,0.78349 -0.619,4.34421 0.8427,14.9695 -8.3033,16.555 -0.788,0.1268 -1.5656,0.3113 -2.3265,0.5523 -0.7062,0.2279 -1.3867,0.5288 -2.0305,0.8977 0.2642,-0.6051 0.5479,-1.2031 0.8265,-1.803 z M 8.20996,38.4763 c 0,0 0.32383,0.1156 0.90334,0.3095 0.63591,0.2083 1.4218,0.461 1.7242,0.558 4.3873,1.3786 13.4035,3.9074 20.257,3.8104 -0.002,0.2938 -0.4763,6.365 -0.4763,6.365 C 23.4379,49.465 16.3106,48.2854 9.49576,46.0235 8.48817,45.6941 7.49941,45.3097 6.53394,44.872 6.5303,44.8875 6.52818,44.8901 6.5283,44.8694 6.83211,42.679 7.39667,40.5327 8.20996,38.4763 Z m -3.995,15.4406 c -0.00411,0.0156 -0.00635,0.0165 -0.00623,-0.0026 0.26366,-2.2155 0.76232,-4.3965 1.48755,-6.5065 0.15158,0.0759 0.31725,0.1495 0.47987,0.2233 0.39046,0.1744 1.01697,0.4386 1.8981,0.7605 0.08507,0.0305 0.16743,0.0596 0.25004,0.0885 0.12196,0.0438 0.25744,0.0897 0.38775,0.1351 0.82837,0.282 1.44526,0.4631 1.44526,0.4631 l -0.0015,0.011 c 6.6193,1.9444 13.4667,3.0048 20.3641,3.1534 -0.002,0.2938 -0.6261,6.3568 -0.6261,6.3568 0,0 -7.7125,0.705 -19.1643,-2.5356 l 0.0093,0.009 C 10.2014,55.9475 9.17804,55.6251 8.09881,55.2668 7.24176,54.9908 6.36787,54.6917 5.47715,54.3697 4.73819,54.1109 4.23,53.9267 4.21508,53.9169 Z M 66.3096,96.115 c -0.4444,2.4415 -0.9447,4.876 -1.5471,7.284 -0.0748,0.298 -0.2659,0.889 -0.4324,1.46 -5.6521,-1.159 -11.4451,-1.471 -17.1891,-0.928 -1.6951,0.153 -3.3827,0.354 -5.0487,0.645 l -0.0057,0.001 c 0,-0.027 -0.0017,-0.053 -0.0021,-0.08 -0.0954,-6.8563 -2.0575,-13.7895 -4.2372,-20.2405 -0.0774,-0.229 -0.5306,-0.3366 -1.1254,-0.3554 -1.3377,-0.0422 -3.3967,0.3684 -3.5452,0.8803 -1.002,3.4565 -1.9934,6.9162 -2.9741,10.3791 -0.6698,2.3661 -2.2639,5.7465 -2.6687,8.5655 -4.2195,-0.431 -8.4755,-0.352 -12.6761,0.235 -2.6711,0.277 -5.26616,0.578 -7.6359,0.674 -0.14946,0.007 -0.66458,0.106 -1.11261,0.156 0.11337,-0.549 0.13804,-1.112 0.07309,-1.669 C 6.4947,100.994 5.76772,98.2363 5.7065,96.0644 5.54447,90.3134 5.67983,84.5494 5.89204,78.8011 c 0.04018,-1.0888 0.08848,-2.1838 0.13712,-3.279 1.31999,0.2372 2.56397,0.4327 3.73192,0.5864 9.07592,1.201 13.76332,0.0502 16.41612,-1.4908 0.3722,-0.2151 0.73,-0.454 1.0714,-0.7151 8.6245,-0.2468 15.4812,-0.2135 20.8707,-0.0387 0.1327,0.075 0.2712,0.1489 0.4135,0.2226 3.2035,1.6549 8.9233,2.8745 19.9362,1.338 0.037,-0.0051 0.0767,-0.0117 0.1138,-0.0169 -0.274,6.947 -1.0336,13.8664 -2.2732,20.7074 z M 52.1103,58.6866 c 0.0147,0.0116 0.0304,0.0219 0.047,0.0306 -2.605,0.249 -5.2282,0.2431 -7.8321,-0.0174 0,0 -0.005,-0.0833 -0.0124,-0.2219 -0.2023,-2.0706 -0.1822,-4.1569 0.0601,-6.2232 0.9732,-0.0035 1.9127,-0.0235 2.829,-0.0538 0.0983,-0.0027 0.191,-0.0055 0.2766,-0.0085 0.1762,-0.0062 0.3377,-0.0181 0.5114,-0.0253 0.0333,-0.0033 0.0549,-0.0067 0.0549,-0.0101 l 0.002,0.0072 c 14.0811,-0.5907 21.2017,-4.0837 21.2017,-4.0837 0.6007,2.2093 0.9979,4.4689 1.1868,6.7505 -5.9181,2.0645 -12.0768,3.3603 -18.325,3.8556 z"
                       id="Shape" />
                  </g>
                </g>
                <g
                   id="Head"
                   fill-rule="nonzero"
                   transform="translate(2.35)">
                  <g
                     id="BG-4"
                     fill="#ffffff"
                     transform="translate(8.225,1.175)">
                    <path
                       d="m 67.6849,50.8657 c -0.6826,0.7792 -1.4384,1.4909 -2.2571,2.1255 -0.2891,0.2251 -1.877,0.7659 -2.159,0.3838 -0.9968,-1.3365 -2.1144,-2.5785 -3.3389,-3.7101 0.6761,1.3409 1.2078,2.2683 1.2078,2.316 -0.7676,-0.0615 -1.5149,-0.2773 -2.1972,-0.6345 -1.9392,-0.4596 -3.7245,-1.4182 -5.179,-2.7806 -1.0026,-0.1466 -1.986,-0.2677 -2.95,-0.3634 0.9238,2.1057 1.9766,4.1524 3.1525,6.1284 -0.7221,-2e-4 -1.4289,-0.2079 -2.0364,-0.5982 -1.8527,0.0569 -5.4873,-2.9962 -8.442,-5.8468 -0.52,0.0118 -1.0176,0.0483 -1.5246,0.0745 1.4749,3.1347 3.1937,6.1488 5.1406,9.0143 -0.827,0.1561 -1.6821,-0.0264 -2.3735,-0.5064 -2.1696,0.0023 -6.9049,-4.0217 -10.5605,-7.4942 -0.4946,0.1058 -0.9935,0.2087 -1.4724,0.3283 1.9902,3.195 4.198,6.2492 6.6078,9.1409 -0.9686,-0.0208 -1.9216,-0.2487 -2.7948,-0.6683 -3.1108,-0.5135 -7.0045,-3.7633 -9.8299,-6.4937 -0.4122,0.1697 -0.8127,0.3457 -1.2103,0.5241 1.2137,2.5703 2.7156,4.9943 4.4768,7.2254 -1.0918,-0.4185 -2.0778,-1.0729 -2.8875,-1.9164 0.3039,0.4685 0.6436,0.9128 1.016,1.3289 -0.7896,0 -3.384,-2.2498 -6.1194,-4.8601 -0.8241,0.4683 -1.6096,0.9501 -2.3564,1.4452 1.4787,2.7392 2.8612,4.9533 2.8612,4.8841 -0.7272,-0.227 -1.4281,-0.5308 -2.0909,-0.9063 0.0633,0.1127 0.1368,0.2194 0.2194,0.3188 C 19.1523,58.8471 17.8107,58.1251 16.6215,57.1908 13.61,59.5769 10.9658,62.393 8.77384,65.5487 6.82123,81.009 7.70306,105.808 31.8038,111.332 c 9.3171,0.159 18.2296,-3.801 24.3558,-10.823 6.0592,-6.9728 10.2393,-15.3766 12.1449,-24.416 2.076,-14.2376 0.567,-21.8827 -0.6196,-25.2273 z M 43.8442,80.9153 c 1.1957,0 2.1647,2.3344 2.1647,5.2141 0,2.8797 -0.969,5.214 -2.1647,5.214 -1.1957,0 -2.1645,-2.3343 -2.1645,-5.214 0,-2.8797 0.9697,-5.2138 2.1651,-5.2138 z m -21.2106,0 c 1.1955,0 2.1645,2.3344 2.1645,5.2141 0,2.8797 -0.969,5.214 -2.1645,5.214 -1.1956,0 -2.1646,-2.3343 -2.1646,-5.214 0,-2.8797 0.9697,-5.2138 2.1651,-5.2138 z M 47.777,102.898 c -4.7568,-1.395 -8.1101,2.105 -14.1405,-1.714 -0.094,0 -5.1574,4.377 -11.3332,1.469 -2.2874,-1.077 -2.3914,-0.489 -4.107,-0.245 0.4519,-0.528 0.9663,-0.999 1.532,-1.403 -0.4145,0.079 -0.8433,0.228 -1.5314,0.326 0,0 5.3547,-6.805 15.5442,-1.6154 0,0.0979 7.3302,-6.2668 14.0365,2.1054 -0.3897,-0.112 -0.7871,-0.194 -1.1889,-0.248 0.4208,0.419 0.8176,0.861 1.1883,1.325 z"
                       id="path2567" />
                    <path
                       d="m 34.237,100.453 c -0.1997,-0.114 -0.3948,-0.216 -0.6005,-0.346 -0.0174,0 -0.2068,0.151 -0.5397,0.376 0.2134,0.1 0.4258,0.198 0.6437,0.309 0,0.016 0.1759,-0.124 0.4965,-0.339 z"
                       id="path2569" />
                    <path
                       d="M 8.37775,26.4438 C 9.99925,25.4876 11.6166,24.6486 13.2283,23.9 14.5501,15.3968 17.9501,5.63507 25.5512,1.33527 25.4472,1.36429 25.3397,1.38321 25.2365,1.41305 16.0471,6.69913 9.82224,15.9414 8.37775,26.4438 Z"
                       id="path2571" />
                    <path
                       d="M 15.6187,22.8554 C 26.6225,18.397 38.8211,17.8408 50.185,21.2792 48.4717,12.4569 43.7858,2.5427 34.8496,0.167437 32.6832,0.127221 30.5183,0.303604 28.3871,0.693955 20.7012,4.1024 17.0539,14.3101 15.6187,22.8554 Z"
                       id="path2573" />
                    <path
                       d="m 52.5867,22.0603 c 2.3945,0.8312 4.716,1.8596 6.9404,3.0747 2.2812,1.2008 4.2297,2.9475 5.672,5.0841 -0.063,-0.2828 -0.1214,-0.5677 -0.1871,-0.849 C 62.9265,20.4273 58.9843,11.1713 51.4088,5.53554 47.2384,2.52822 42.3245,0.719543 37.1996,0.3055 46.1955,3.51536 50.914,12.9461 52.5867,22.0603 Z"
                       id="path2575" />
                    <path
                       d="m 0.898053,34.4016 c -0.038658,0.2202 -0.08084,0.4402 -0.1175,0.6604 l 0.067092,-0.1023 c 0.013983,-0.1903 0.035133,-0.3701 0.050408,-0.5581 z"
                       id="path2577" />
                    <path
                       d="m 64.5638,51.6047 c 0.0955,0.1139 0.1855,0.2315 0.2789,0.3468 0.1105,-0.1091 0.1984,-0.2227 0.3032,-0.3332 -0.1948,0.0025 -0.3889,-0.002 -0.5821,-0.0136 z"
                       id="path2579" />
                    <path
                       d="M 59.2964,35.0953 C 54.2742,29.5941 46.561,27.1391 39.3364,26.5031 31.2779,25.7937 22.75,26.7797 15.5221,30.5998 c -2.3881,1.2649 -4.5925,2.8495 -6.55227,4.7101 -2.62236,3.4575 -6.78985,10.6946 4.75557,10.2088 0.0174,-0.0164 -0.9372,1.1397 -2.1855,2.727 13.1143,-12.1975 38.3299,-10.8905 50.9974,1.1931 2.2992,-4.9287 0.3154,-10.448 -3.2409,-14.3435 z"
                       id="path2581" />
                  </g>
                  <g
                     id="Shadow-4"
                     fill="#e3e3e3"
                     transform="translate(5.875,2.35)">
                    <path
                       d="M 64.3858,31.3043 C 53.1693,21.5553 33.4844,20.9626 20.1681,25.5586 14.5245,27.5068 8.2015,31.2648 4.24762,36.3662 c -1.07268,1.3593 -1.96231,2.8535 -2.6461,4.4443 -2.242482,5.3462 1.51305,11.8873 6.36956,14.5533 1.3892,-3.1376 3.40292,-5.9593 5.91832,-8.2932 1.2488,-1.5868 2.2034,-2.7434 2.1855,-2.727 -11.54539,0.4858 -7.3779,-6.7514 -4.7555,-10.2088 1.9598,-1.8606 4.1643,-3.4452 6.5523,-4.71 7.2279,-3.8201 15.7559,-4.8057 23.8144,-4.0967 7.2246,0.636 14.9377,3.091 19.9599,8.5922 3.5564,3.8955 5.5405,9.4148 3.2404,14.3435 0.7152,0.684 1.3919,1.4071 2.027,2.1659 0.1934,0.0117 0.3875,0.0162 0.5821,0.0136 5.7729,-6.0836 2.9587,-13.8646 -3.1097,-19.139 z"
                       id="path2584" />
                    <path
                       d="m 11.1238,64.3737 c 2.192,-3.1557 4.8362,-5.9718 7.8477,-8.3579 -2.1973,-1.7287 -4.1794,-3.7148 -5.9036,-5.9157 -1.4246,1.873 -2.5739,3.9401 -3.41316,6.1386 -0.11198,0.2937 -0.89241,0.4358 -1.50094,0.47 -0.22636,0.0794 -0.4701,0.0957 -0.70501,0.047 C 6.75683,56.5127 6.09013,56.2031 5.45811,55.8311 4.84228,55.4694 4.25678,55.0584 3.70736,54.6021 0.935535,69.8166 2.80731,80.5977 4.52398,86.3908 4.63279,86.7585 4.74042,87.1029 4.84676,87.4301 9.0858,97.055 16.7405,106.425 27.2193,109.19 c 2.2654,0.593 4.5928,0.918 6.9341,0.967 C 10.0531,104.634 9.17123,79.834 11.1238,64.3737 Z"
                       id="path2586" />
                    <path
                       d="m 31.6717,42.8749 c -0.4733,1.0028 0.581,3.2313 2.0698,5.6111 1.8528,2.8464 3.8694,5.5827 6.0395,8.1952 -0.3096,0.002 -0.6188,-0.025 -0.9234,-0.0809 0.8733,0.4197 1.8262,0.6476 2.7949,0.6684 -2.4097,-2.8916 -4.6173,-5.9458 -6.6073,-9.1407 0.4789,-0.1196 0.9778,-0.2221 1.4724,-0.3283 -2.7246,-2.5886 -4.8459,-4.8652 -4.8459,-4.9248 z"
                       id="path2588" />
                    <path
                       d="m 61.7014,47.9532 c -0.6664,-0.5889 -1.3597,-1.1494 -2.0798,-1.6813 0.3238,0.7031 0.6434,1.3523 0.932,1.9168 0.6051,1.1842 1.063,1.9858 1.063,2.03 -0.1057,-0.0035 -0.218,-0.0339 -0.326,-0.047 0.6823,0.3571 1.4296,0.5729 2.1972,0.6345 0,-0.0477 -0.5317,-0.9753 -1.2077,-2.3161 -0.1924,-0.1795 -0.3811,-0.3621 -0.5787,-0.5369 z"
                       id="path2590" />
                    <path
                       d="m 41.3412,41.9937 c 0.0937,1.7118 0.572,3.3805 1.3993,4.8821 1.4173,2.888 3.0343,5.6736 4.8391,8.3366 -0.1603,0.06 -0.331,0.0875 -0.5021,0.0811 0.6914,0.4801 1.5465,0.6625 2.3735,0.5064 -1.9469,-2.8655 -3.6657,-5.8795 -5.1406,-9.0142 0.507,-0.0262 1.0046,-0.0626 1.5246,-0.0745 -1.579,-1.4933 -3.0789,-3.0679 -4.4938,-4.7175 z"
                       id="path2592" />
                    <path
                       d="m 25.2772,46.2531 c -0.5007,1.002 0.2098,2.9742 1.2435,4.9761 0.8607,1.6303 1.8251,3.2037 2.8872,4.7106 0.8097,0.8435 1.7957,1.4979 2.8874,1.9164 -1.7612,-2.2311 -3.263,-4.6551 -4.4767,-7.2255 0.3974,-0.1783 0.7978,-0.3543 1.2102,-0.524 -2.153,-2.0801 -3.6879,-3.8536 -3.7516,-3.8536 z"
                       id="path2594" />
                    <path
                       d="m 17.6447,45.7039 -0.1125,-0.1198 c -0.2248,0.1757 -0.4583,0.3408 -0.6767,0.524 0.0095,0.0326 0.0208,0.0667 0.0307,0.0996 1.0437,2.9237 2.3622,5.7419 3.9377,8.4168 0.8371,1.4897 1.5533,2.6733 1.8945,3.2067 0.6628,0.3754 1.3637,0.6792 2.0909,0.9062 0,0.0692 -1.3825,-2.1449 -2.8612,-4.8841 0.7468,-0.4935 1.5323,-0.9752 2.3564,-1.4452 -2.5446,-2.4279 -5.2095,-5.1669 -6.6598,-6.7042 z"
                       id="path2596" />
                    <path
                       d="m 56.1111,47.3912 c -2.0814,-1.8198 -4.0453,-3.7698 -5.8798,-5.8381 -0.0181,1.8453 0.4065,3.668 1.238,5.3154 0.8881,1.952 1.8804,3.8548 2.9728,5.7002 -0.0491,0.0066 -0.1128,-0.0118 -0.1645,-0.0107 0.6075,0.3903 1.3143,0.5979 2.0364,0.5982 -1.1759,-1.9761 -2.2287,-4.0228 -3.1525,-6.1285 0.965,0.0974 1.9482,0.2185 2.9496,0.3635 z"
                       id="path2598" />
                    <path
                       d="m 15.1425,26.7569 c -0.0235,-0.0065 -0.0571,-0.0118 -0.0563,-0.0206 0.1145,-1.2839 0.2772,-2.632 0.4916,-4.0113 -1.6116,0.7486 -3.2296,1.5876 -4.8505,2.5438 C 12.1718,14.7664 18.3966,5.52413 27.5861,0.238055 23.606,1.35423 19.9251,3.34412 16.8113,6.06277 9.3201,12.7342 5.04897,22.9595 3.24805,33.2267 3.23278,33.4146 3.21163,33.5944 3.198,33.7847 L 3.1309,33.887 c -0.08647,0.5236 -0.16273,1.0458 -0.2364,1.5682 3.3229,-3.8432 7.5246,-6.8272 12.248,-8.6983 z"
                       id="path2600" />
                    <path
                       d="m 17.4121,25.8753 c 8.3536,-2.8138 17.184,-3.9353 25.9757,-3.2991 3.2832,0.2097 6.5412,0.7111 9.7355,1.4983 -0.1277,-1.2766 -0.324,-2.6085 -0.5883,-3.9705 -11.3639,-3.4384 -23.5626,-2.8821 -34.5663,1.5764 -0.2457,1.4624 -0.4311,2.8745 -0.5566,4.1949 z"
                       id="path2602" />
                    <path
                       d="m 68.197,32.2226 c -0.1943,-1.0681 -0.4141,-2.1267 -0.6482,-3.1785 -1.4423,-2.1366 -3.3909,-3.8832 -5.672,-5.0841 -2.2245,-1.2151 -4.546,-2.2435 -6.9405,-3.0747 0.2377,1.2956 0.4151,2.5843 0.5332,3.8481 4.8043,1.3877 9.1815,3.9633 12.7275,7.4892 z"
                       id="path2604" />
                    <path
                       d="m 36.587,99.278 c -0.3206,0.2151 -0.4965,0.3548 -0.4965,0.3396 -0.2179,-0.1108 -0.4303,-0.2088 -0.6437,-0.309 -3.1425,2.2714 -7.2596,2.6874 -10.7935,1.0924 -0.7644,-0.4876 -1.6766,-0.6899 -2.5756,-0.5709 -0.5655,0.4039 -1.0797,0.8749 -1.5314,1.4039 1.7155,-0.245 1.8196,-0.833 4.107,0.244 6.1758,2.908 11.2388,-1.468 11.3332,-1.468 6.0304,3.818 9.3837,0.318 14.1405,1.713 -0.3707,-0.464 -0.7675,-0.906 -1.1882,-1.325 -4.0034,-0.57 -7.199,1.815 -12.3518,-1.12 z"
                       id="path2606" />
                  </g>
                  <path
                     d="m 41.9655,100.891 c -10.1895,-5.19 -15.5442,1.615 -15.5442,1.615 0.6881,-0.098 1.1169,-0.247 1.5314,-0.326 0.899,-0.119 1.8112,0.083 2.5756,0.571 3.5339,1.595 7.651,1.178 10.7935,-1.093 0.3329,-0.225 0.5223,-0.376 0.5397,-0.376 0.2057,0.13 0.4009,0.232 0.6005,0.346 5.1528,2.935 8.3484,0.55 12.3514,1.12 0.4017,0.054 0.7989,0.136 1.1886,0.248 -6.7063,-8.3722 -14.0365,-2.007 -14.0365,-2.105 z"
                     id="Mustache"
                     fill="#000000" />
                  <g
                     id="Eyes"
                     fill="#000000"
                     transform="translate(28.2,81.075)">
                    <ellipse
                       cx="2.6591401"
                       cy="6.22961"
                       rx="2.1645899"
                       ry="5.2140598"
                       id="Right-2" />
                    <path
                       d="m 23.8698,11.4437 c 1.1957,0 2.1647,-2.33439 2.1647,-5.21408 0,-2.87969 -0.969,-5.21407 -2.1647,-5.21407 -1.1957,0 -2.1645,2.33438 -2.1645,5.21407 0,2.87969 0.9691,5.21408 2.1645,5.21408 z"
                       id="Left-2" />
                  </g>
                  <path
                     d="M 67.7981,103.959 C 80.3644,91.7701 83.8469,72.1835 82.5979,55.3272 82.2641,50.0516 81.2637,44.8394 79.6206,39.815 78.5336,25.9322 73.3146,10.4516 61.0455,3.69796 51.5472,-1.53079 37.9633,-0.712755 28.0632,3.03397 17.8002,6.91793 11.1954,15.6946 7.53598,25.7585 5.23526,32.0633 3.8879,38.6761 3.53839,45.3785 -1.51646,60.552 0.618638,79.0498 7.61694,92.368 c 5.37706,10.233 14.16436,18.04 25.67716,20.333 9.2609,1.845 20.1395,1.235 28.3269,-3.872 1.0706,2.012 1.38,4.343 0.8716,6.565 0,0 9.8334,0.772 9.0014,-7.062 0,0.352 0.0577,-2.72 -3.6959,-4.373 z M 59.6338,6.71054 c 7.575,5.63576 11.5177,14.89176 13.6032,23.83456 0.0657,0.2813 0.1241,0.5662 0.1871,0.849 0.2342,1.0514 0.4539,2.1104 0.6482,3.1785 C 70.5263,31.0469 66.1491,28.4713 61.3449,27.0837 61.2274,25.8199 61.0494,24.5313 60.8117,23.2356 59.139,14.1212 54.4205,4.69036 45.4246,1.4805 50.5495,1.89454 55.4634,3.70322 59.6338,6.71054 Z M 43.0746,1.3422 c 8.9362,2.37526 13.6221,12.2894 15.3354,21.1121 0.2643,1.3617 0.4606,2.6939 0.5883,3.9704 C 55.804,25.6375 52.546,25.1361 49.2628,24.9265 40.4711,24.2902 31.6407,25.4117 23.2871,28.2255 23.4126,26.9051 23.598,25.493 23.8437,24.0307 25.2789,15.4851 28.9261,5.27739 36.6121,1.86825 38.7433,1.47806 40.9082,1.30183 43.0746,1.3422 Z M 9.00591,36.237 C 9.04221,36.0168 9.0844,35.7968 9.12341,35.5766 10.924,25.3095 15.1951,15.0842 22.6863,8.413 25.8001,5.69435 29.481,3.70447 33.4611,2.58829 33.5646,2.55844 33.6717,2.53953 33.7757,2.5105 c -7.601,4.2998 -11.001,14.0616 -12.3229,22.5647 -0.2144,1.3797 -0.3771,2.7274 -0.4916,4.0113 -8e-4,0.0092 0.0333,0.0141 0.0563,0.0206 -4.7234,1.8711 -8.9251,4.855 -12.248,8.6981 0.07367,-0.5225 0.14993,-1.0446 0.23641,-1.5682 z m -1.52939,6.9236 c 0.68378,-1.5909 1.57341,-3.0851 2.64608,-4.4443 3.954,-5.1017 10.2769,-8.8595 15.9205,-10.8079 13.3163,-4.5959 33.0012,-4.0033 44.2177,5.7457 6.0684,5.2744 8.883,13.0553 3.1101,19.139 -0.1048,0.1105 -0.1927,0.2241 -0.3032,0.3331 -0.0934,-0.1153 -0.1834,-0.2329 -0.2789,-0.3467 -0.6352,-0.7588 -1.3119,-1.4819 -2.027,-2.1659 C 58.0943,38.5302 32.8787,37.2232 19.7644,49.4205 17.249,51.7543 15.2353,54.5761 13.8461,57.7136 8.98957,55.0479 5.23404,48.5073 7.47652,43.1606 Z M 40.0284,112.507 C 37.6871,112.458 35.3597,112.133 33.0943,111.54 22.6155,108.775 14.9608,99.405 10.7211,89.7801 10.6147,89.4529 10.5071,89.1085 10.3983,88.7408 8.68161,82.9481 6.80983,72.1666 9.58165,56.9521 c 0.54945,0.4563 1.13495,0.8673 1.75075,1.229 0.632,0.372 1.2987,0.6816 1.9907,0.9246 0.2349,0.0487 0.4786,0.0324 0.705,-0.047 0.6085,-0.0341 1.389,-0.1763 1.5009,-0.47 0.8392,-2.1985 1.9886,-4.2656 3.4132,-6.1386 1.7244,2.201 3.7067,4.187 5.9043,5.9157 1.1894,0.9344 2.5312,1.6564 3.9663,2.1341 -0.0827,-0.0994 -0.1561,-0.2061 -0.2194,-0.3188 -0.3408,-0.5333 -1.0575,-1.7169 -1.8945,-3.2066 -1.5755,-2.6749 -2.894,-5.4931 -3.9377,-8.4168 -0.0099,-0.0329 -0.0212,-0.067 -0.0307,-0.0996 0.2189,-0.1833 0.4519,-0.3483 0.6767,-0.524 l 0.1125,0.1198 c 1.4503,1.5373 4.1152,4.2763 6.6598,6.7046 2.7352,2.6104 5.3298,4.8602 6.1194,4.8602 -0.3724,-0.4161 -0.7121,-0.8604 -1.016,-1.3289 -1.0621,-1.5069 -2.0265,-3.0803 -2.8872,-4.7106 -1.034,-2.0019 -1.7442,-3.9741 -1.2435,-4.9761 0.0637,0 1.5986,1.7735 3.7511,3.854 2.8254,2.7303 6.7191,5.9807 9.8299,6.4936 0.3046,0.0558 0.6138,0.0829 0.9234,0.0808 -2.1701,-2.6124 -4.1867,-5.3488 -6.0395,-8.1951 -1.4888,-2.3798 -2.5431,-4.6084 -2.0699,-5.6111 0,0.0598 2.121,2.3361 4.846,4.9245 3.655,3.4717 8.3903,7.4957 10.5593,7.4937 0.1711,0.0064 0.3418,-0.0211 0.5021,-0.0811 -1.8048,-2.663 -3.4218,-5.4486 -4.8391,-8.3366 -0.8273,-1.5016 -1.3056,-3.1703 -1.3993,-4.8821 1.4149,1.6496 2.9149,3.2242 4.4939,4.7175 2.9547,2.851 6.5893,5.9037 8.442,5.8468 0.052,-0.0015 0.1156,0.0173 0.1645,0.0107 -1.0923,-1.8454 -2.0847,-3.7482 -2.9727,-5.7002 -0.8314,-1.6474 -1.2558,-3.4702 -1.2376,-5.3154 1.8346,2.0683 3.7986,4.0183 5.8801,5.8381 1.4545,1.3624 3.2398,2.3209 5.179,2.7806 0.1079,0.013 0.2209,0.0434 0.326,0.047 0,-0.0443 -0.4582,-0.846 -1.063,-2.0299 -0.2886,-0.564 -0.6082,-1.2138 -0.932,-1.9169 0.7206,0.5315 1.4139,1.0919 2.0797,1.6813 0.1974,0.1747 0.3864,0.3574 0.5786,0.537 1.2244,1.1316 2.3421,2.3735 3.3389,3.71 0.282,0.3821 1.8699,-0.1586 2.1589,-0.3837 0.8187,-0.6346 1.5746,-1.3464 2.2572,-2.1255 1.1868,3.3443 2.6956,10.9894 0.6196,25.2272 -1.9056,9.0393 -6.0857,17.4429 -12.1447,24.4167 -6.1263,7.021 -15.039,10.982 -24.3562,10.822 z"
                     id="Stroke-4"
                     fill="#000000" />
                </g>
              </g>
            </g>
          </g>
        </g>
      </g>
    </g>
  </g>
</svg>
