<?xml version="1.0" encoding="UTF-8" standalone="no"?>
<svg
   xmlns:dc="http://purl.org/dc/elements/1.1/"
   xmlns:cc="http://creativecommons.org/ns#"
   xmlns:rdf="http://www.w3.org/1999/02/22-rdf-syntax-ns#"
   xmlns:svg="http://www.w3.org/2000/svg"
   xmlns="http://www.w3.org/2000/svg"
   xmlns:xlink="http://www.w3.org/1999/xlink"
   xmlns:sodipodi="http://sodipodi.sourceforge.net/DTD/sodipodi-0.dtd"
   xmlns:inkscape="http://www.inkscape.org/namespaces/inkscape"
   width="40mm"
   height="40mm"
   viewBox="0 0 40 40"
   version="1.1"
   id="svg1954"
   inkscape:version="1.0 (4035a4fb49, 2020-05-01)"
   sodipodi:docname="grant.svg">
  <defs
     id="defs1948">
    <path
       id="path-1"
       d="M0.2259 82.0714C0.0183 59.9809 5.4111 42.662 20.745 25.58 33.316 11.5754 48.5812 1.9032 77.1314 0.8771 104.133-0.0929 119.231 11.5044 134.508 23.9523 151.346 37.6723 158.416 54.9123 158.207 80.7049 158.01 104.909 147.691 128.048 135.131 138.705 121.173 150.549 100.64 156.698 77.2633 157.139 55.508 157.549 37.6852 151.678 24.7444 136.834 11.1693 121.262 0.4472 105.626 0.2259 82.0714Z" />
    <path
       id="path-1-8"
       d="M0.1944 83.0491C-0.0375 60.9591 7.3644 45.1844 18.4817 29.7436 29.0135 15.1161 43.9768 3.4328 78.1362 1.1169 105.372-0.73 122.059 5.3606 135.631 19.6477 148.893 33.6071 158.257 58.3329 157.767 84.1218 157.236 112.062 146.398 122.317 134.345 134.953 119.685 150.117 99.6196 158.865 78.5313 159.287 56.776 159.697 40.3864 151.189 24.9484 138.413 9.0335 125.242 0.5019 112.35 0.1944 83.0491Z" />
    <path
       id="path-1-87"
       d="M0.491 79.7166C2.6941 57.7354 10.511 42.4907 21.9973 28.6 33.4836 14.7093 48.1818 1.4171 77.789 0.86 102.157 0.4017 121.566 7.7676 135.139 22.0546 148.4 36.0141 155.297 56.7289 155.087 82.5216 154.89 106.726 149.374 123.808 137.321 136.443 124.685 149.689 101.477 157.508 78.1008 157.949 56.3455 158.359 37.4035 152.351 22.7694 138.651 6.56601 123.551-1.67145 101.76 0.491 79.7166L0.491 79.7166Z" />
    <mask
       fill="#ffffff"
       id="mask-2-93">
      <use
         id="use1876"
         xlink:href="#path-1"
         height="100%"
         width="100%"
         x="0"
         y="0" />
    </mask>
    <mask
       fill="#ffffff"
       id="mask-2-4">
      <path
         style="stroke-width:1.06517"
         d="M -1.6448673,88.841659 C -1.8918814,65.311944 5.9924371,48.509129 17.834307,32.061976 29.052516,16.481129 44.991048,4.0363704 81.376786,1.5695318 110.38768,-0.39773986 128.16225,6.0898147 142.61881,21.308076 c 14.12635,14.869203 24.10065,41.206506 23.57871,68.676196 -0.56561,29.761198 -12.10997,40.684568 -24.94853,54.144118 -15.61546,16.15232 -36.98862,25.47047 -59.451354,25.91997 -23.1732,0.43672 -40.630992,-8.62579 -57.075163,-22.23446 C 7.7703206,133.78448 -1.317326,120.05224 -1.6448673,88.841659 Z"
         id="use2065" />
    </mask>
    <mask
       fill="#ffffff"
       id="mask-2-93-6">
      <use
         id="use1876-1"
         xlink:href="#path-1"
         height="100%"
         width="100%"
         x="0"
         y="0" />
    </mask>
    <mask
       fill="#ffffff"
       id="mask-2-4-5">
      <path
         style="stroke-width:1.06517"
         d="M -1.6448673,88.841659 C -1.8918814,65.311944 5.9924371,48.509129 17.834307,32.061976 29.052516,16.481129 44.991048,4.0363704 81.376786,1.5695318 110.38768,-0.39773986 128.16225,6.0898147 142.61881,21.308076 c 14.12635,14.869203 24.10065,41.206506 23.57871,68.676196 -0.56561,29.761198 -12.10997,40.684568 -24.94853,54.144118 -15.61546,16.15232 -36.98862,25.47047 -59.451354,25.91997 -23.1732,0.43672 -40.630992,-8.62579 -57.075163,-22.23446 C 7.7703206,133.78448 -1.317326,120.05224 -1.6448673,88.841659 Z"
         id="use2065-6" />
    </mask>
  </defs>
  <sodipodi:namedview
     id="base"
     pagecolor="#ffffff"
     bordercolor="#666666"
     borderopacity="1.0"
     inkscape:pageopacity="0.0"
     inkscape:pageshadow="2"
     inkscape:zoom="2.8"
     inkscape:cx="99.912889"
     inkscape:cy="37.343832"
     inkscape:document-units="mm"
     inkscape:current-layer="Page-1"
     inkscape:document-rotation="0"
     showgrid="false"
     inkscape:window-width="1424"
     inkscape:window-height="1208"
     inkscape:window-x="1223"
     inkscape:window-y="843"
     inkscape:window-maximized="0" />
  <metadata
     id="metadata1951">
    <rdf:RDF>
      <cc:Work
         rdf:about="">
        <dc:format>image/svg+xml</dc:format>
        <dc:type
           rdf:resource="http://purl.org/dc/dcmitype/StillImage" />
        <dc:title />
      </cc:Work>
    </rdf:RDF>
  </metadata>
  <g
     inkscape:label="Layer 1"
     inkscape:groupmode="layer"
     id="layer1">
    <g
       fill-rule="evenodd"
       fill="none"
       stroke-width="1"
       stroke="none"
       id="Page-1"
       transform="matrix(0.24839425,0,0,0.24839425,0.46001059,-0.09434954)">
      <path
         id="rect8973"
         style="fill:#ffffff;fill-opacity:1;stroke:#000000;stroke-width:1.93772;stroke-linecap:square;stroke-linejoin:round;stroke-miterlimit:4;stroke-dasharray:none;stroke-opacity:1"
         d="M 23.018564,2.4554955 H 147.57983 L 130.42095,160.15295 H 5.8595806 Z"
         sodipodi:nodetypes="ccccc" />
      <text
         xml:space="preserve"
         style="font-size:37.0386px;line-height:1.25;font-family:'Comic Sans MS';-inkscape-font-specification:'Comic Sans MS';stroke-width:1.54328"
         x="-20.862339"
         y="-62.950436"
         id="text6131"><tspan
           sodipodi:role="line"
           id="tspan6129"
           x="-20.862339"
           y="-62.950436"
           style="stroke-width:1.54328" /></text>
      <text
         transform="skewX(-8)"
         id="text949"
         y="48.791077"
         x="32.381435"
         style="font-size:38.3091px;line-height:1.25;font-family:BentonSans;-inkscape-font-specification:'BentonSans, Normal';fill:#000000;fill-opacity:1;stroke-width:1.06518"
         xml:space="preserve"><tspan
           style="fill:#000000;fill-opacity:1;stroke-width:1.06518"
           y="48.791077"
           x="32.381435"
           id="tspan947"
           sodipodi:role="line">12345</tspan><tspan
           id="tspan951"
           style="fill:#000000;fill-opacity:1;stroke-width:1.06518"
           y="96.677452"
           x="32.381435"
           sodipodi:role="line">code</tspan><tspan
           id="tspan953"
           style="fill:#000000;fill-opacity:1;stroke-width:1.06518"
           y="144.56383"
           x="32.381435"
           sodipodi:role="line">abcde</tspan></text>
    </g>
  </g>
</svg>
