<svg width="1174" height="511" xmlns="http://www.w3.org/2000/svg" xmlns:xlink="http://www.w3.org/1999/xlink" overflow="hidden"><defs><clipPath id="clip0"><path d="M40 153 1214 153 1214 664 40 664Z" fill-rule="evenodd" clip-rule="evenodd"/></clipPath></defs><g clip-path="url(#clip0)" transform="translate(-40 -153)"><path d="M312.785 430.593C301.276 390.313 360.532 353.218 445.136 347.739 479.419 345.519 514.275 348.838 544.127 357.165 575.758 328.776 649.675 317.987 709.224 333.067 719.637 335.703 729.194 339.045 737.597 342.989 762.233 319.457 822.239 309.896 871.626 321.635 885.295 324.884 897.218 329.582 906.481 335.37 946.189 313.116 1016.35 310.368 1063.2 329.23 1082.89 337.158 1096.16 348.093 1100.74 360.16 1165.8 368.612 1204.18 400.628 1186.46 431.669 1184.97 434.278 1183.1 436.835 1180.87 439.321 1233.05 471.665 1220.28 518.025 1152.34 542.867 1131.19 550.6 1106.21 555.607 1079.82 557.404 1079.23 592.202 1019.46 620.185 946.32 619.905 921.883 619.812 897.977 616.504 877.248 610.347 852.508 649.36 766.216 671.41 684.509 659.598 650.266 654.648 620.68 644.179 600.796 629.977 517.138 654.004 408.552 641.079 358.264 601.109 357.63 600.605 357.007 600.099 356.396 599.589 301.645 602.64 252.051 584.037 245.625 558.038 242.2 544.18 251.807 530.31 271.886 520.123 224.48 506.833 208.556 477.665 236.318 454.973 252.334 441.881 280.425 433.227 311.952 431.671Z" stroke="#000000" stroke-miterlimit="8" fill="#E1E5FF" fill-rule="evenodd"/><path d="M330.939 525.158C310.701 525.913 290.465 523.685 272.947 518.775M382.106 595.015C373.968 596.558 365.437 597.585 356.734 598.07M600.739 628.582C594.618 624.21 589.493 619.538 585.451 614.646M883.451 593.83C882.551 599.016 880.505 604.141 877.347 609.122M1004.83 499.345C1050.72 509.979 1079.68 532.213 1079.27 556.496M1180.4 438.474C1172.97 446.743 1161.63 454.078 1147.26 459.905M1100.87 358.958C1102.14 362.297 1102.72 365.687 1102.62 369.079M889.198 347.153C893.516 342.483 899.235 338.136 906.177 334.245M730.385 353.304C732.147 349.445 734.91 345.706 738.609 342.172M544.009 357.084C554.811 360.097 564.803 363.723 573.768 367.884M317.982 441.958C315.624 438.242 313.887 434.443 312.788 430.596" stroke="#000000" stroke-miterlimit="8" fill="none" fill-rule="evenodd"/><path d="M419.5 413.167C419.5 392.917 435.917 376.5 456.167 376.5L932.833 376.5C953.084 376.5 969.5 392.917 969.5 413.167L969.5 559.832C969.5 580.083 953.084 596.499 932.833 596.499L456.167 596.499C435.917 596.499 419.5 580.083 419.5 559.832Z" stroke="#000000" stroke-miterlimit="8" fill="#D9D9D9" fill-rule="evenodd"/><text font-family="Arial,Arial_MSFontService,sans-serif" font-weight="400" font-size="27" transform="translate(674.872 572)">erp</text><path d="M457.5 426.501C457.5 414.902 466.902 405.5 478.5 405.5L794.5 405.5C806.098 405.5 815.5 414.902 815.5 426.501L815.5 510.5C815.5 522.098 806.098 531.5 794.5 531.5L478.5 531.5C466.902 531.5 457.5 522.098 457.5 510.5Z" stroke="#000000" stroke-miterlimit="8" fill="#FFD05D" fill-rule="evenodd"/><text font-family="Arial,Arial_MSFontService,sans-serif" font-weight="400" font-size="27" transform="translate(574.098 511)">production</text><path d="M481.5 431.5C481.5 426.53 485.53 422.5 490.5 422.5L610.5 422.5C615.471 422.5 619.5 426.53 619.5 431.5L619.5 467.5C619.5 472.471 615.471 476.5 610.5 476.5L490.5 476.5C485.53 476.5 481.5 472.471 481.5 467.5Z" stroke="#000000" stroke-miterlimit="8" fill="#DAF7CB" fill-rule="evenodd"/><text font-family="Arial,Arial_MSFontService,sans-serif" font-weight="400" font-size="27" transform="translate(507.017 459)">catalog</text><path d="M643.5 431.5C643.5 426.53 647.53 422.5 652.5 422.5L772.5 422.5C777.471 422.5 781.5 426.53 781.5 431.5L781.5 467.5C781.5 472.471 777.471 476.5 772.5 476.5L652.5 476.5C647.53 476.5 643.5 472.471 643.5 467.5Z" stroke="#000000" stroke-miterlimit="8" fill="#DAF7CB" fill-rule="evenodd"/><text font-family="Arial,Arial_MSFontService,sans-serif" font-weight="400" font-size="27" transform="translate(666.68 459)">reviews</text><path d="M506.5 320.834C506.5 315.679 510.679 311.5 515.834 311.5L806.167 311.5C811.321 311.5 815.5 315.679 815.5 320.834L815.5 358.167C815.5 363.321 811.321 367.5 806.167 367.5L515.834 367.5C510.679 367.5 506.5 363.321 506.5 358.167Z" stroke="#000000" stroke-miterlimit="8" fill="#FFDCC6" fill-rule="evenodd"/><text font-family="Arial,Arial_MSFontService,sans-serif" font-weight="400" font-size="27" transform="translate(625.898 349)">router</text><path d="M592.5 163.5C592.5 158.53 596.53 154.5 601.5 154.5L721.5 154.5C726.471 154.5 730.5 158.53 730.5 163.5L730.5 199.5C730.5 204.471 726.471 208.5 721.5 208.5L601.5 208.5C596.53 208.5 592.5 204.471 592.5 199.5Z" stroke="#000000" stroke-miterlimit="8" fill="#FFD05D" fill-rule="evenodd"/><text font-family="Arial,Arial_MSFontService,sans-serif" font-weight="400" font-size="27" transform="translate(613.315 191)">browser</text><path d="M662 208.5 662 298.864 661 298.864 661 208.5ZM668.167 297.53 661.5 310.864 654.833 297.53Z"/><path d="M661.631 367.5 661.631 394.997C661.631 395.273 661.407 395.497 661.131 395.497L550.5 395.497 551 394.997 551 410.493 550 410.493 550 394.997C550 394.721 550.224 394.497 550.5 394.497L661.131 394.497 660.631 394.997 660.631 367.5ZM557.167 409.16 550.5 422.493 543.833 409.16Z"/><text font-family="Consolas,Consolas_MSFontService,sans-serif" font-weight="400" font-size="24" transform="translate(54.9833 268)">https://erp<tspan x="144.833" y="0">-</tspan><tspan x="158" y="0">catalog.cf.us10.hana.ondemand.com</tspan></text><path d="M159.5 247.5C159.5 240.32 160.47 234.5 161.667 234.5L231.333 234.5C232.53 234.5 233.5 228.68 233.5 221.5 233.5 228.68 234.47 234.5 235.667 234.5L305.333 234.5C306.53 234.5 307.5 240.32 307.5 247.5" stroke="#000000" stroke-linejoin="round" stroke-miterlimit="10" fill="none" fill-rule="evenodd"/><path d="M320.5 247.5C320.5 240.32 321.47 234.5 322.667 234.5L482.333 234.5C483.53 234.5 484.5 228.68 484.5 221.5 484.5 228.68 485.47 234.5 486.667 234.5L646.333 234.5C647.53 234.5 648.5 240.32 648.5 247.5" stroke="#000000" stroke-linejoin="round" stroke-miterlimit="10" fill="none" fill-rule="evenodd"/><text fill="#FF0000" font-family="Arial,Arial_MSFontService,sans-serif" font-weight="400" font-size="24" transform="translate(175.305 209)">Host name<tspan x="234.098" y="0">Domain </tspan>name</text></g></svg>